<svg xmlns="http://www.w3.org/2000/svg" xmlns:xlink="http://www.w3.org/1999/xlink" width="308" height="308" viewBox="0 0 308 308">
  <defs>
    <linearGradient id="linear-gradient" x1="0.5" x2="0.5" y2="1" gradientUnits="objectBoundingBox">
      <stop offset="0" stop-color="#f3f3f3"/>
      <stop offset="1" stop-color="#fff"/>
    </linearGradient>
    <clipPath id="clip-path">
      <circle id="Ellipse_40" data-name="Ellipse 40" cx="126" cy="126" r="126" fill="#fff" stroke="#707070" stroke-width="1"/>
    </clipPath>
  </defs>
  <g id="Group_7293" data-name="Group 7293" transform="translate(-140 -3101)">
    <circle id="Ellipse_36" data-name="Ellipse 36" cx="154" cy="154" r="154" transform="translate(140 3101)" fill="url(#linear-gradient)"/>
    <g id="Mask_Group_50" data-name="Mask Group 50" transform="translate(168 3129)" clip-path="url(#clip-path)">
      <g id="Group_6499" data-name="Group 6499" transform="translate(9 9.783)">
        <path id="Path_3875" data-name="Path 3875" d="M5.418,0h7.654V-31.39H1.161v6.837H5.418Zm12.6-16.125c0,9.288,3.139,16,12.083,16s12.083-6.708,12.083-16c0-9.2-3.139-15.91-12.083-15.91S18.017-25.327,18.017-16.125Zm16.942,0c0,4.988-.516,9.116-4.859,9.116s-4.859-4.128-4.859-9.116c0-4.816.516-9.03,4.859-9.03S34.959-20.941,34.959-16.125Zm11.008,0c0,9.288,3.139,16,12.083,16s12.083-6.708,12.083-16c0-9.2-3.139-15.91-12.083-15.91S45.967-25.327,45.967-16.125Zm16.942,0c0,4.988-.516,9.116-4.859,9.116s-4.859-4.128-4.859-9.116c0-4.816.516-9.03,4.859-9.03S62.909-20.941,62.909-16.125Zm10.406-7.353c0,4.773,3.1,7.267,7.181,7.267s7.138-2.494,7.138-7.267-3.053-7.267-7.138-7.267S73.315-28.251,73.315-23.478Zm7.138-2.967c1.29,0,2.107.9,2.107,2.967,0,2.021-.817,2.924-2.107,2.924s-2.064-.9-2.064-2.924C78.389-25.542,79.163-26.445,80.453-26.445ZM78.862,0h7.1l16.555-30.272h-7.1ZM93.783-6.794c0,4.773,3.053,7.267,7.138,7.267s7.138-2.494,7.138-7.267c0-4.816-3.053-7.267-7.138-7.267S93.783-11.61,93.783-6.794Zm7.1-2.967c1.29,0,2.107.946,2.107,2.967s-.817,2.924-2.107,2.924-2.064-.9-2.064-2.924S99.588-9.761,100.878-9.761Z" transform="translate(60 130.217)" fill="#cce354"/>
        <g id="Group_6490" data-name="Group 6490" transform="translate(203.461 91.733)">
          <path id="Path_3159" data-name="Path 3159" d="M-939.569-273.059s15.264-19.368,6.859-49.7" transform="translate(947.417 332.533)" fill="none" stroke="#66852e" stroke-linecap="round" stroke-miterlimit="10" stroke-width="2"/>
          <path id="Path_3160" data-name="Path 3160" d="M-942.234-306.047c.073.278,10.735,12.069,10.735,12.069l11.48-9.345" transform="translate(946.481 338.402)" fill="none" stroke="#66852e" stroke-linecap="round" stroke-miterlimit="10" stroke-width="2"/>
          <path id="Path_3161" data-name="Path 3161" d="M-941.992-313.754c.131.255,12.878,8.258,12.878,8.258l8.649-10.908" transform="translate(946.566 334.765)" fill="none" stroke="#66852e" stroke-linecap="round" stroke-miterlimit="10" stroke-width="2"/>
          <path id="Path_3162" data-name="Path 3162" d="M-942.684-322.718c.139.223,12.385,6.611,12.385,6.611l7.112-10.611" transform="translate(946.323 331.143)" fill="none" stroke="#66852e" stroke-linecap="round" stroke-miterlimit="10" stroke-width="2"/>
          <path id="Path_3163" data-name="Path 3163" d="M-933.1-313.544c11.473-3.017,9.877-16.449,9.877-16.449S-935.832-325.088-933.1-313.544Z" transform="translate(949.552 329.993)" fill="#7da338"/>
          <path id="Path_3164" data-name="Path 3164" d="M-928.928-315.233c-3.017-11.471-16.449-9.876-16.449-9.876S-940.472-312.5-928.928-315.233Z" transform="translate(945.377 331.682)" fill="#7da338"/>
          <path id="Path_3165" data-name="Path 3165" d="M-933.03-303.773c11.723-1.82,11.52-15.344,11.52-15.344S-934.554-315.538-933.03-303.773Z" transform="translate(949.67 333.812)" fill="#7da338"/>
          <path id="Path_3166" data-name="Path 3166" d="M-929.074-304.767c-1.819-11.723-15.344-11.52-15.344-11.52S-940.837-303.243-929.074-304.767Z" transform="translate(945.714 334.806)" fill="#7da338"/>
          <path id="Path_3167" data-name="Path 3167" d="M-934.289-293.866c11.839.75,14.556-12.5,14.556-12.5S-933.242-305.683-934.289-293.866Z" transform="translate(949.271 338.29)" fill="#7da338"/>
          <path id="Path_3168" data-name="Path 3168" d="M-931.04-293.332c.75-11.839-12.5-14.556-12.5-14.556S-942.856-294.379-931.04-293.332Z" transform="translate(946.022 337.756)" fill="#7da338"/>
        </g>
        <g id="Group_6491" data-name="Group 6491" transform="translate(0 91.733)">
          <path id="Path_3169" data-name="Path 3169" d="M-1077.466-273.059s-15.264-19.368-6.859-49.7" transform="translate(1099.156 332.533)" fill="none" stroke="#66852e" stroke-linecap="round" stroke-miterlimit="10" stroke-width="2"/>
          <path id="Path_3170" data-name="Path 3170" d="M-1071.466-306.047c-.073.278-10.735,12.069-10.735,12.069l-11.48-9.345" transform="translate(1096.758 338.402)" fill="none" stroke="#66852e" stroke-linecap="round" stroke-miterlimit="10" stroke-width="2"/>
          <path id="Path_3171" data-name="Path 3171" d="M-1071.887-313.754c-.132.255-12.878,8.258-12.878,8.258l-8.649-10.908" transform="translate(1096.852 334.765)" fill="none" stroke="#66852e" stroke-linecap="round" stroke-miterlimit="10" stroke-width="2"/>
          <path id="Path_3172" data-name="Path 3172" d="M-1071.723-322.718c-.139.223-12.385,6.611-12.385,6.611l-7.112-10.611" transform="translate(1097.622 331.143)" fill="none" stroke="#66852e" stroke-linecap="round" stroke-miterlimit="10" stroke-width="2"/>
          <path id="Path_3173" data-name="Path 3173" d="M-1083.684-313.544c-11.473-3.017-9.877-16.449-9.877-16.449S-1080.956-325.088-1083.684-313.544Z" transform="translate(1096.773 329.993)" fill="#7da338"/>
          <path id="Path_3174" data-name="Path 3174" d="M-1086.271-315.233c3.017-11.471,16.449-9.876,16.449-9.876S-1074.727-312.5-1086.271-315.233Z" transform="translate(1099.36 331.682)" fill="#7da338"/>
          <path id="Path_3175" data-name="Path 3175" d="M-1083.418-303.773c-11.723-1.82-11.52-15.344-11.52-15.344S-1081.894-315.538-1083.418-303.773Z" transform="translate(1096.316 333.812)" fill="#7da338"/>
          <path id="Path_3176" data-name="Path 3176" d="M-1086.412-304.767c1.819-11.723,15.344-11.52,15.344-11.52S-1074.649-303.243-1086.412-304.767Z" transform="translate(1099.31 334.806)" fill="#7da338"/>
          <path id="Path_3177" data-name="Path 3177" d="M-1081.4-293.866c-11.839.75-14.556-12.5-14.556-12.5S-1082.449-305.683-1081.4-293.866Z" transform="translate(1095.958 338.29)" fill="#7da338"/>
          <path id="Path_3178" data-name="Path 3178" d="M-1085.177-293.332c-.75-11.839,12.5-14.556,12.5-14.556S-1073.361-294.379-1085.177-293.332Z" transform="translate(1099.733 337.756)" fill="#7da338"/>
        </g>
        <g id="Group_6494" data-name="Group 6494" transform="translate(36.933 182.624)">
          <g id="Group_6493" data-name="Group 6493">
            <g id="Group_6492" data-name="Group 6492">
              <path id="Path_3179" data-name="Path 3179" d="M-1068.624-241.952l16.64-20.773,5.151,4.125q2.706,2.169,2.752,4.6a8.387,8.387,0,0,1-2.213,5.253,7.167,7.167,0,0,1-4.47,2.9,6.327,6.327,0,0,1-4.949-1.64l-2.267-1.816-7.748,9.672Zm12.308-9.434,1.316,1.054a4.921,4.921,0,0,0,3.16,1.421q1.257-.105,2.792-2.021c.423-.526.755-.969,1-1.327a5.968,5.968,0,0,0,.6-1.094,2.362,2.362,0,0,0,.212-.97,2.243,2.243,0,0,0-.26-.9,3.838,3.838,0,0,0-.7-.951,13.823,13.823,0,0,0-1.208-1.07l-1.354-1.085Z" transform="translate(1068.624 262.725)" fill="#66852e"/>
              <path id="Path_3180" data-name="Path 3180" d="M-1055.523-231.615l12.385-23.558,4.732,2.486q3.579,1.883,4.479,4.224t-.839,5.652q-2.391,4.548-5.8,3.968l-2.845,13.591-3.183-1.673,2.713-12.683-2.543-1.338-5.813,11.055Zm10.332-11.688,1.236.65a5.056,5.056,0,0,0,3.508.765q1.36-.365,2.525-2.581a5.062,5.062,0,0,0,.8-3.427q-.334-1.281-2.521-2.432l-1.451-.762Z" transform="translate(1073.225 265.377)" fill="#66852e"/>
              <path id="Path_3181" data-name="Path 3181" d="M-1033.7-221.855a8.783,8.783,0,0,1-3.112-1.517,5.166,5.166,0,0,1-1.681-2.306,7.751,7.751,0,0,1-.423-2.931,14.865,14.865,0,0,1,.628-3.56l2.8-9.685q1.157-3.993,3.377-5.583t5.955-.509q3.715,1.074,4.752,3.621t-.111,6.51l-2.8,9.7a10.323,10.323,0,0,1-3.416,5.663Q-1030-220.784-1033.7-221.855Zm-.835-3.616a4.239,4.239,0,0,0,1.642.826,4.246,4.246,0,0,0,1.829.177,2.322,2.322,0,0,0,1.325-.685,4.878,4.878,0,0,0,.907-1.317,12.86,12.86,0,0,0,.7-1.928l3.236-11.2a12.421,12.421,0,0,0,.427-1.966,4.761,4.761,0,0,0-.076-1.559,2.219,2.219,0,0,0-.769-1.25,4.5,4.5,0,0,0-1.646-.8,4.5,4.5,0,0,0-1.823-.2,2.22,2.22,0,0,0-1.316.647,4.709,4.709,0,0,0-.9,1.28,12.338,12.338,0,0,0-.686,1.889l-3.237,11.2a12.814,12.814,0,0,0-.436,2,4.88,4.88,0,0,0,.063,1.6A2.327,2.327,0,0,0-1034.539-225.471Z" transform="translate(1079.053 267.761)" fill="#66852e"/>
              <path id="Path_3182" data-name="Path 3182" d="M-1022.442-219.28l2.071-26.534,5.76.45q4.307.336,5.922,2.427t1.288,6.283l-.761,9.764q-.342,4.37-2.262,6.384t-5.987,1.7Zm3.9-2.367,2.079.162a5.994,5.994,0,0,0,1.511-.051,4.849,4.849,0,0,0,1.112-.316,1.888,1.888,0,0,0,.786-.686,5.887,5.887,0,0,0,.522-.909,5.865,5.865,0,0,0,.332-1.262q.146-.843.208-1.442t.151-1.735l.674-8.626q.075-.961.095-1.619t-.026-1.323a4,4,0,0,0-.2-1.094,3.819,3.819,0,0,0-.435-.831,2.009,2.009,0,0,0-.707-.635,4.724,4.724,0,0,0-1.032-.395,7.9,7.9,0,0,0-1.416-.223l-2-.157Z" transform="translate(1084.842 268.664)" fill="#66852e"/>
              <path id="Path_3183" data-name="Path 3183" d="M-994.275-219.625a8.893,8.893,0,0,1-2.876.8,8.933,8.933,0,0,1-2.994-.073,5.507,5.507,0,0,1-2.179-.942,5.477,5.477,0,0,1-1.492-1.789,10.573,10.573,0,0,1-.958-2.436,24.365,24.365,0,0,1-.561-3.077l-2.177-17.507,3.5-.435,2.2,17.683q.14,1.131.308,1.951a9.22,9.22,0,0,0,.493,1.628,4.022,4.022,0,0,0,.765,1.273,2.814,2.814,0,0,0,1.131.708,3.481,3.481,0,0,0,1.6.132,3.444,3.444,0,0,0,1.512-.519,2.8,2.8,0,0,0,.915-.971,4.133,4.133,0,0,0,.43-1.42,9.166,9.166,0,0,0,.081-1.693q-.038-.835-.18-1.967l-2.2-17.683,3.5-.435,2.177,17.507a24.3,24.3,0,0,1,.209,3.121,10.635,10.635,0,0,1-.332,2.6,5.489,5.489,0,0,1-1.009,2.1A5.5,5.5,0,0,1-994.275-219.625Z" transform="translate(1090.085 268.46)" fill="#66852e"/>
              <path id="Path_3184" data-name="Path 3184" d="M-978.953-223.159a8.564,8.564,0,0,1-2.9.505,5.635,5.635,0,0,1-2.331-.5,6.013,6.013,0,0,1-1.846-1.4,9.479,9.479,0,0,1-1.436-2.065,19,19,0,0,1-1.093-2.629l-3.016-8.91a20.158,20.158,0,0,1-.771-2.909,9.837,9.837,0,0,1-.126-2.55,5.491,5.491,0,0,1,.63-2.2,5.624,5.624,0,0,1,1.567-1.75,9.121,9.121,0,0,1,2.612-1.324q3.407-1.153,5.5.188a8.989,8.989,0,0,1,3.308,4.914l.678,2.006-3.329,1.127-.6-1.778c-.13-.385-.235-.686-.313-.9s-.181-.484-.307-.8a4.724,4.724,0,0,0-.341-.732q-.154-.253-.376-.585a1.811,1.811,0,0,0-.443-.485,4.625,4.625,0,0,0-.53-.312,1.571,1.571,0,0,0-.635-.176,4.272,4.272,0,0,0-.749.042,5.028,5.028,0,0,0-.908.223,4.84,4.84,0,0,0-1.223.592,2.21,2.21,0,0,0-.727.805,3.2,3.2,0,0,0-.316.946,3.563,3.563,0,0,0,.031,1.167c.074.455.168.886.277,1.3s.265.908.465,1.5l3.375,9.974a8.229,8.229,0,0,0,2.051,3.712,2.943,2.943,0,0,0,2.915.251,4.522,4.522,0,0,0,1.159-.562,1.958,1.958,0,0,0,.666-.784,3.542,3.542,0,0,0,.277-.908,3.419,3.419,0,0,0-.058-1.124q-.128-.677-.29-1.232t-.461-1.436l-.627-1.855,3.329-1.127.632,1.87a17.544,17.544,0,0,1,.693,2.646,9.083,9.083,0,0,1,.1,2.348,5.148,5.148,0,0,1-.6,2.04,5.337,5.337,0,0,1-1.478,1.644A8.522,8.522,0,0,1-978.953-223.159Z" transform="translate(1095.357 267.398)" fill="#66852e"/>
              <path id="Path_3185" data-name="Path 3185" d="M-965.276-228.622l-11.536-20.9-4.258,2.351-1.327-2.4,11.607-6.407,1.328,2.4-4.1,2.266,11.536,20.9Z" transform="translate(1098.905 265.094)" fill="#66852e"/>
              <path id="Path_3186" data-name="Path 3186" d="M-950.56-238.855a6.331,6.331,0,0,1-5.287,1.574,9.362,9.362,0,0,1-5.075-3.2l2.023-2.767q3.845,4.244,6.514,2.109a2.843,2.843,0,0,0,1.2-1.979,3.294,3.294,0,0,0-.874-2.29,5.693,5.693,0,0,0-1.13-1.09,4.337,4.337,0,0,0-1.357-.643,9.623,9.623,0,0,0-1.343-.293q-.586-.075-1.616-.157l-5.961-.311a7.977,7.977,0,0,1-3.146-.786,8,8,0,0,1-2.552-2.2,5.958,5.958,0,0,1-1.5-4.566,6.45,6.45,0,0,1,2.552-4.147,6.121,6.121,0,0,1,4.764-1.7,8.634,8.634,0,0,1,4.766,2.9l-1.905,2.631q-.592-.636-1.1-1.093a7.342,7.342,0,0,0-1.135-.83,3.687,3.687,0,0,0-1.181-.474,2.544,2.544,0,0,0-1.186.085,3.213,3.213,0,0,0-1.228.724q-2.164,2-.472,4.117a4.3,4.3,0,0,0,1.536,1.28,6.084,6.084,0,0,0,2.086.45l5.987.29a13.927,13.927,0,0,1,4.28.894,8.034,8.034,0,0,1,3.354,2.539,6.148,6.148,0,0,1,1.512,4.721A6.346,6.346,0,0,1-950.56-238.855Z" transform="translate(1103.011 263.208)" fill="#66852e"/>
            </g>
          </g>
        </g>
        <g id="Group_6497" data-name="Group 6497" transform="translate(32.434)">
          <g id="Group_6496" data-name="Group 6496">
            <g id="Group_6495" data-name="Group 6495">
              <path id="Path_3187" data-name="Path 3187" d="M-1056.923-348.049l-15.031-22.538,4.747-4.651,22.207,15.5-3.875,3.8-4.609-3.4-2.774,2.719,3.313,4.666Zm-1.429-11.435,2.029-1.989-8.233-6.36Z" transform="translate(1071.954 405.837)" fill="#66852e"/>
              <path id="Path_3188" data-name="Path 3188" d="M-1039.577-361.02a11.9,11.9,0,0,1-2.89,1.355,6.445,6.445,0,0,1-2.473.281,5.169,5.169,0,0,1-2.173-.757,8.5,8.5,0,0,1-1.94-1.647,18.551,18.551,0,0,1-1.824-2.505l-9.634-15.484,4.934-3.069,10.091,16.22c.22.354.419.65.592.889a6.154,6.154,0,0,0,.635.731,2.753,2.753,0,0,0,.724.542,1.618,1.618,0,0,0,.8.145,1.9,1.9,0,0,0,.911-.312,1.855,1.855,0,0,0,.676-.676,1.6,1.6,0,0,0,.216-.777,2.714,2.714,0,0,0-.166-.889,6,6,0,0,0-.378-.9c-.139-.266-.318-.572-.532-.917l-10.091-16.219,4.947-3.078,9.634,15.484a16.251,16.251,0,0,1,1.673,3.4,7.234,7.234,0,0,1,.363,2.969,5.166,5.166,0,0,1-1.156,2.732A11.306,11.306,0,0,1-1039.577-361.02Z" transform="translate(1075.973 401.324)" fill="#66852e"/>
              <path id="Path_3189" data-name="Path 3189" d="M-1032.01-365.925l-7.729-20.881-3.84,1.421-1.509-4.081,13.158-4.87,1.511,4.081-3.794,1.4,7.729,20.881Z" transform="translate(1081.389 399.13)" fill="#66852e"/>
              <path id="Path_3190" data-name="Path 3190" d="M-1025.229-369.062l-3.927-26.325,5.826-.869,1.588,10.638,4.048-.6-1.588-10.638,5.828-.869,3.926,26.324-5.826.869-1.72-11.526-4.048.6,1.719,11.527Z" transform="translate(1086.984 397.938)" fill="#66852e"/>
              <path id="Path_3191" data-name="Path 3191" d="M-1011.034-371.31l1.474-26.574,11.94.661-.223,4.008-6.075-.336-.363,6.572,4.632.255-.226,4.087-4.633-.257-.439,7.934,6.138.34-.22,3.975Z" transform="translate(1093.348 397.884)" fill="#66852e"/>
              <path id="Path_3192" data-name="Path 3192" d="M-999.6-370.677l6.633-25.778,4.01,1.034,2.119,13.739,3.183-12.375,4.726,1.216-6.632,25.775-3.855-.99-1.886-14.708-3.432,13.339Z" transform="translate(1097.362 398.386)" fill="#66852e"/>
              <path id="Path_3193" data-name="Path 3193" d="M-984.329-365.887l9.68-20.05-3.687-1.781,1.893-3.917,12.633,6.1-1.89,3.918-3.643-1.759-9.68,20.05Z" transform="translate(1102.726 400.079)" fill="#66852e"/>
              <path id="Path_3194" data-name="Path 3194" d="M-975.632-362.208l15.057-21.949,4.844,3.324-15.056,21.947Z" transform="translate(1105.78 402.705)" fill="#66852e"/>
              <path id="Path_3195" data-name="Path 3195" d="M-964.464-353.422a10.375,10.375,0,0,1-2.294-3.1,5.56,5.56,0,0,1-.507-3.036,7.684,7.684,0,0,1,1-2.9,15.04,15.04,0,0,1,2.287-2.925l6.618-6.8a15.6,15.6,0,0,1,2.913-2.419,7.654,7.654,0,0,1,2.886-1.088,5.484,5.484,0,0,1,3.025.436,10.648,10.648,0,0,1,3.152,2.228,10.9,10.9,0,0,1,2.247,2.95,5.257,5.257,0,0,1,.582,2.808,6.624,6.624,0,0,1-.793,2.587,11.711,11.711,0,0,1-1.913,2.505l-1.635,1.68-4.118-4.008,1.87-1.921c.292-.3.508-.53.649-.69a6.071,6.071,0,0,0,.5-.67,1.951,1.951,0,0,0,.332-.742,1.619,1.619,0,0,0-.091-.727,1.984,1.984,0,0,0-.527-.792,2,2,0,0,0-.807-.507,1.642,1.642,0,0,0-.757-.064,2.275,2.275,0,0,0-.767.328,5.065,5.065,0,0,0-.724.538c-.2.181-.436.412-.712.7l-8.656,8.892a5.681,5.681,0,0,0-1.409,2.044,1.608,1.608,0,0,0,.551,1.713,1.918,1.918,0,0,0,.791.489,1.594,1.594,0,0,0,.738.058,2.089,2.089,0,0,0,.751-.346,5.491,5.491,0,0,0,.692-.536c.177-.169.409-.4.693-.69l1.95-2,4.117,4.008-1.6,1.646a13.72,13.72,0,0,1-1.965,1.7,7.828,7.828,0,0,1-2.063,1.026,5.373,5.373,0,0,1-2.194.251,6.27,6.27,0,0,1-2.324-.753A10.9,10.9,0,0,1-964.464-353.422Z" transform="translate(1108.704 405.659)" fill="#66852e"/>
            </g>
          </g>
        </g>
        <g id="Group_6498" data-name="Group 6498" transform="translate(32.658 32.43)">
          <path id="Path_3196" data-name="Path 3196" d="M-989.283-373.883a82.5,82.5,0,0,0-82.505,82.505,82.506,82.506,0,0,0,82.505,82.506,82.507,82.507,0,0,0,82.506-82.506A82.506,82.506,0,0,0-989.283-373.883Zm0,147.852a65.347,65.347,0,0,1-65.347-65.347,65.347,65.347,0,0,1,65.347-65.347,65.346,65.346,0,0,1,65.346,65.347A65.346,65.346,0,0,1-989.283-226.031Z" transform="translate(1071.788 373.883)" fill="#8db347"/>
        </g>
      </g>
    </g>
  </g>
</svg>
