<svg xmlns="http://www.w3.org/2000/svg" xmlns:xlink="http://www.w3.org/1999/xlink" width="308" height="308" viewBox="0 0 308 308">
  <defs>
    <linearGradient id="linear-gradient" x1="0.5" x2="0.5" y2="1" gradientUnits="objectBoundingBox">
      <stop offset="0" stop-color="#f3f3f3"/>
      <stop offset="1" stop-color="#fff"/>
    </linearGradient>
    <clipPath id="clip-path">
      <circle id="Ellipse_43" data-name="Ellipse 43" cx="126" cy="126" r="126" fill="#fff" stroke="#707070" stroke-width="1"/>
    </clipPath>
  </defs>
  <g id="Group_7296" data-name="Group 7296" transform="translate(-1457 -3101)">
    <circle id="Ellipse_39" data-name="Ellipse 39" cx="154" cy="154" r="154" transform="translate(1457 3101)" fill="url(#linear-gradient)"/>
    <g id="Mask_Group_47" data-name="Mask Group 47" transform="translate(1485 3129)" clip-path="url(#clip-path)">
      <g id="Group_6518" data-name="Group 6518" transform="translate(0.875 9.082) rotate(-3)">
        <path id="Path_3224" data-name="Path 3224" d="M24.95,2.151h0a7.343,7.343,0,0,0-10.385,0L13.55,3.167,12.534,2.151a7.341,7.341,0,0,0-10.383,0h0a7.343,7.343,0,0,0,0,10.385l1.016,1.016h0L13.55,23.935,23.935,13.551l1.016-1.016A7.345,7.345,0,0,0,24.95,2.151Z" transform="translate(0 123.972)" fill="#8db347"/>
        <path id="Path_3225" data-name="Path 3225" d="M24.949,2.15h0a7.344,7.344,0,0,0-10.383,0L13.55,3.166,12.534,2.15a7.345,7.345,0,0,0-10.385,0h0a7.345,7.345,0,0,0,0,10.385L3.166,13.55h0L13.55,23.934,23.934,13.55l1.016-1.016A7.343,7.343,0,0,0,24.949,2.15Z" transform="translate(210.269 124.66)" fill="#8db347"/>
        <g id="Group_6513" data-name="Group 6513" transform="translate(9.405)">
          <g id="Group_6512" data-name="Group 6512">
            <g id="Group_6511" data-name="Group 6511">
              <path id="Path_3226" data-name="Path 3226" d="M25.036,12.01,4.906,6.646l.527,3.922L1.536,9.53Q1.289,8.186.861,6.5A9.256,9.256,0,0,0,0,4.111L1.1,0,26.437,6.751Z" transform="translate(0 80.623)" fill="#66852e"/>
              <path id="Path_3227" data-name="Path 3227" d="M25.161,16.269a6.809,6.809,0,0,1-4.222,3.82,7.842,7.842,0,0,1-5.72-.821L4.609,13.892A8.275,8.275,0,0,1,.4,9.746a6.749,6.749,0,0,1,.592-5.72A6.692,6.692,0,0,1,5.241.2a8.281,8.281,0,0,1,5.829.94L21.681,6.511a7.8,7.8,0,0,1,4.025,4.13A6.748,6.748,0,0,1,25.161,16.269ZM20.871,14.1q.727-1.44-1.812-2.725L8.716,6.132c-.225-.113-.407-.2-.546-.268s-.337-.146-.594-.246a2.315,2.315,0,0,0-.667-.17,4.2,4.2,0,0,0-.606,0,1.015,1.015,0,0,0-.574.224,1.592,1.592,0,0,0-.423.539,1.96,1.96,0,0,0-.184.519.891.891,0,0,0,.04.481c.059.153.115.289.168.4a1.186,1.186,0,0,0,.317.371l.359.306a2.863,2.863,0,0,0,.441.285c.212.12.347.194.409.225s.2.1.4.205L17.6,14.249Q20.142,15.537,20.871,14.1Z" transform="translate(7.187 57.997)" fill="#66852e"/>
              <path id="Path_3228" data-name="Path 3228" d="M22.979,19.828A6.809,6.809,0,0,1,18.063,22.7a7.828,7.828,0,0,1-5.427-1.98l-9.281-7.44A8.267,8.267,0,0,1,.085,8.354,6.748,6.748,0,0,1,1.84,2.878,6.7,6.7,0,0,1,6.79.005,8.265,8.265,0,0,1,12.3,2.122l9.281,7.44a7.808,7.808,0,0,1,3.09,4.87A6.758,6.758,0,0,1,22.979,19.828Zm-3.752-3.009q1.011-1.258-1.212-3.04L8.969,6.526q-.3-.236-.479-.374c-.122-.091-.3-.212-.53-.363a2.318,2.318,0,0,0-.618-.3,4.538,4.538,0,0,0-.594-.12,1.018,1.018,0,0,0-.607.1,1.618,1.618,0,0,0-.526.441,2.008,2.008,0,0,0-.286.47.888.888,0,0,0-.06.479c.025.162.053.306.081.431a1.2,1.2,0,0,0,.233.429c.126.162.224.288.289.373a2.818,2.818,0,0,0,.373.37c.184.161.3.262.354.3s.17.137.351.282L16,16.3Q18.218,18.078,19.228,16.819Z" transform="translate(19.052 39.418)" fill="#66852e"/>
              <path id="Path_3229" data-name="Path 3229" d="M14.488,16.263q-.222,2.223-2.941,4.1T6.68,21.657q-2.149-.589-4.192-3.541l-.63-.911Q-.213,14.214.024,12.1T3.032,8.063Q5.8,6.146,7.872,6.646t4.121,3.467l.684.989Q14.711,14.042,14.488,16.263ZM8.83,17.9a1.825,1.825,0,0,0,.783-.33,1.808,1.808,0,0,0,.583-.615,1.419,1.419,0,0,0,.18-.672,2.2,2.2,0,0,0-.218-.829,7.269,7.269,0,0,0-.482-.919q-.263-.423-.74-1.113l-.451-.65c-.336-.485-.591-.847-.768-1.082a6.493,6.493,0,0,0-.636-.724,1.589,1.589,0,0,0-.652-.443,1.483,1.483,0,0,0-.647,0,2.125,2.125,0,0,0-.793.367,2.126,2.126,0,0,0-.624.614,1.419,1.419,0,0,0-.22.614,1.585,1.585,0,0,0,.186.755,7.718,7.718,0,0,0,.454.851c.161.26.4.626.728,1.093l.467.676q.477.689.78,1.086a7.339,7.339,0,0,0,.69.774,2.114,2.114,0,0,0,.695.49A1.44,1.44,0,0,0,8.83,17.9Zm11.846,9.9L12.308,1.7,14.765,0l8.369,26.1Zm11.745-8.071q-2.706,1.871-4.861,1.285t-4.2-3.537l-.63-.909q-2.071-2.992-1.833-5.108t3.008-4.035q2.77-1.917,4.839-1.415t4.121,3.467l.684.989q2.035,2.938,1.812,5.162T32.422,19.732ZM29.7,17.264a1.778,1.778,0,0,0,.782-.329,1.815,1.815,0,0,0,.584-.616,1.411,1.411,0,0,0,.18-.672,2.186,2.186,0,0,0-.22-.829,7.152,7.152,0,0,0-.481-.916c-.176-.282-.423-.655-.74-1.113l-.451-.651c-.336-.486-.592-.845-.768-1.084a6.609,6.609,0,0,0-.636-.723,1.592,1.592,0,0,0-.652-.443,1.463,1.463,0,0,0-.647,0,2.557,2.557,0,0,0-1.418.98,1.437,1.437,0,0,0-.22.614,1.579,1.579,0,0,0,.186.758,8.085,8.085,0,0,0,.454.849c.16.261.4.624.727,1.093l.469.676q.477.689.78,1.085a7.212,7.212,0,0,0,.688.774,2.1,2.1,0,0,0,.695.49A1.43,1.43,0,0,0,29.7,17.264Z" transform="translate(34.893 17.099)" fill="#66852e"/>
              <path id="Path_3230" data-name="Path 3230" d="M11.625,26.7a10.249,10.249,0,0,1-3.794.137,5.461,5.461,0,0,1-2.748-1.282,7.582,7.582,0,0,1-1.8-2.43,14.884,14.884,0,0,1-1.1-3.491L.351,10.464A15.368,15.368,0,0,1,.013,6.748,7.53,7.53,0,0,1,.737,3.8,5.415,5.415,0,0,1,2.779,1.582,10.5,10.5,0,0,1,6.346.265,10.741,10.741,0,0,1,10,.084,5.2,5.2,0,0,1,12.6,1.177a6.522,6.522,0,0,1,1.659,2.089,11.5,11.5,0,0,1,.968,2.952l.453,2.265L10.128,9.592,9.612,7q-.122-.605-.2-.912a6.118,6.118,0,0,0-.269-.777,1.925,1.925,0,0,0-.418-.683A1.569,1.569,0,0,0,8.088,4.3a1.977,1.977,0,0,0-.939-.013,1.955,1.955,0,0,0-.86.373,1.611,1.611,0,0,0-.474.578,2.258,2.258,0,0,0-.162.807,5.093,5.093,0,0,0,.033.889q.054.391.169.965l2.394,11.99a5.6,5.6,0,0,0,.876,2.286,1.583,1.583,0,0,0,1.7.507,1.885,1.885,0,0,0,.837-.369,1.578,1.578,0,0,0,.459-.567,2.071,2.071,0,0,0,.138-.8,5.4,5.4,0,0,0-.052-.86c-.037-.241-.095-.557-.173-.949l-.539-2.7,5.553-1.109.443,2.218a13.4,13.4,0,0,1,.282,2.54,7.754,7.754,0,0,1-.318,2.249,5.319,5.319,0,0,1-1.019,1.923,6.234,6.234,0,0,1-1.909,1.468A10.693,10.693,0,0,1,11.625,26.7Z" transform="translate(81.158 1.652)" fill="#66852e"/>
              <path id="Path_3231" data-name="Path 3231" d="M7.557,26.76a11.721,11.721,0,0,1-3.115-.443,6.36,6.36,0,0,1-2.189-1.1,5.088,5.088,0,0,1-1.383-1.8,8.365,8.365,0,0,1-.712-2.4,18.389,18.389,0,0,1-.15-3.049L.418,0,6.143.132,5.711,18.949Q5.7,19.566,5.719,20a6.041,6.041,0,0,0,.129.945,2.69,2.69,0,0,0,.3.837,1.578,1.578,0,0,0,.581.551,1.9,1.9,0,0,0,.92.236,1.859,1.859,0,0,0,.923-.193,1.607,1.607,0,0,0,.6-.525,2.685,2.685,0,0,0,.344-.823,6.15,6.15,0,0,0,.173-.947c.027-.293.045-.642.055-1.042L10.176.224l5.74.132L15.5,18.32a15.969,15.969,0,0,1-.457,3.707,7.117,7.117,0,0,1-1.3,2.645A5.07,5.07,0,0,1,11.317,26.3,11.178,11.178,0,0,1,7.557,26.76Z" transform="translate(103.964)" fill="#66852e"/>
              <path id="Path_3232" data-name="Path 3232" d="M5.732,26.546Q2.1,25.675.787,23.318T.351,16.7l5.007.419a8.706,8.706,0,0,0-.26,3.623,1.8,1.8,0,0,0,1.378,1.476q1.432.343,1.873-1.5a4.924,4.924,0,0,0,.087-1.988,5.629,5.629,0,0,0-.551-1.7,15.682,15.682,0,0,0-1.161-1.808l-1.792-2.5a17.614,17.614,0,0,1-1.044-1.616,10.387,10.387,0,0,1-.72-1.644,6.161,6.161,0,0,1-.33-1.974A9.134,9.134,0,0,1,3.112,5.26,6.5,6.5,0,0,1,6.2.795,7.752,7.752,0,0,1,11.85.3a8.376,8.376,0,0,1,2.009.743,5.782,5.782,0,0,1,1.414,1.024,4.551,4.551,0,0,1,.881,1.277,6.3,6.3,0,0,1,.478,1.4,7.824,7.824,0,0,1,.149,1.484,10.812,10.812,0,0,1-.073,1.454c-.055.433-.129.891-.225,1.378l-5.026-.539c.092-.433.165-.792.217-1.078s.1-.592.132-.92a3.743,3.743,0,0,0,.015-.809,2.467,2.467,0,0,0-.153-.614,1.012,1.012,0,0,0-.359-.47,1.574,1.574,0,0,0-.616-.244,1.339,1.339,0,0,0-1.279.35A2.516,2.516,0,0,0,8.693,6a4.67,4.67,0,0,0-.138,1.357,3.522,3.522,0,0,0,.339,1.294,10.618,10.618,0,0,0,.517,1q.21.344.716,1.082l1.711,2.427a19.523,19.523,0,0,1,1.172,1.9,13.362,13.362,0,0,1,.832,1.957,7.665,7.665,0,0,1,.393,2.257,9.413,9.413,0,0,1-.273,2.464,6.358,6.358,0,0,1-2.948,4.148A6.779,6.779,0,0,1,5.732,26.546Z" transform="translate(124.582 2.708)" fill="#66852e"/>
              <path id="Path_3233" data-name="Path 3233" d="M0,25.554,9.053,5.57,5.38,3.9,7.148,0,19.74,5.7l-1.768,3.9L14.34,7.966,5.287,27.948Z" transform="translate(142.699 7.334)" fill="#66852e"/>
              <path id="Path_3234" data-name="Path 3234" d="M3.66,23.79A10.708,10.708,0,0,1,.981,21.138,5.519,5.519,0,0,1,.006,18.3a7.194,7.194,0,0,1,.519-2.956,14.574,14.574,0,0,1,1.816-3.2L8.02,4.313a14.583,14.583,0,0,1,2.474-2.729A7.108,7.108,0,0,1,13.13.183a5.456,5.456,0,0,1,2.988.055A10.766,10.766,0,0,1,19.468,1.96q3.445,2.5,3.663,5.337t-2.289,6.3l-5.677,7.84q-2.5,3.459-5.281,4.154T3.66,23.79Zm1.791-4a1.942,1.942,0,0,0,.612.679,2.071,2.071,0,0,0,.836.381,1.528,1.528,0,0,0,.743-.029,2.122,2.122,0,0,0,.686-.391,4.753,4.753,0,0,0,.608-.584q.254-.3.568-.732L16.879,8.932q.307-.423.509-.756a4.553,4.553,0,0,0,.361-.754,2.028,2.028,0,0,0,.15-.76,1.58,1.58,0,0,0-.21-.708,2.069,2.069,0,0,0-.623-.676,2.018,2.018,0,0,0-.831-.377,1.607,1.607,0,0,0-.727.02,1.855,1.855,0,0,0-.674.391,4.861,4.861,0,0,0-.587.581c-.154.186-.341.43-.558.728L6.314,16.807q-.326.447-.523.763a4.571,4.571,0,0,0-.374.746,1.928,1.928,0,0,0-.165.768A1.643,1.643,0,0,0,5.45,19.794Z" transform="translate(156.53 19.34)" fill="#66852e"/>
              <path id="Path_3235" data-name="Path 3235" d="M0,16.561,20.339,0l3.993,4.742L14.468,16.85,28.222,9.366l3.861,4.585L12.294,31.167,9.626,28,22.662,16.465l-15.3,8.846L5.033,22.54,16.361,8.786,2.7,19.768Z" transform="translate(169.867 33.482)" fill="#66852e"/>
              <path id="Path_3236" data-name="Path 3236" d="M0,12.063,23.287,0l5.42,10.464L25.2,12.283,22.439,6.96,16.679,9.943,18.781,14,15.2,15.858,13.1,11.8,6.146,15.4l2.788,5.379-3.484,1.8Z" transform="translate(184.272 56.588)" fill="#66852e"/>
              <path id="Path_3237" data-name="Path 3237" d="M0,7.087,25.251,0l1.932,6.884a20.423,20.423,0,0,1,.612,2.884,9.9,9.9,0,0,1,.009,2.494,5.361,5.361,0,0,1-.7,2.12,5.361,5.361,0,0,1-1.611,1.635,8.822,8.822,0,0,1-2.629,1.165,10.3,10.3,0,0,1-4.178.45,4.933,4.933,0,0,1-3.025-1.763L4.4,22.773,2.784,17,13.3,11.058,12.865,9.49l-11.3,3.171Zm16.077,1.5.4,1.431a3.01,3.01,0,0,0,1.559,2.158A4.407,4.407,0,0,0,20.9,12.13a4.5,4.5,0,0,0,2.418-1.361,2.656,2.656,0,0,0,.233-2.422l-.483-1.721Z" transform="translate(191.083 75.195)" fill="#66852e"/>
            </g>
          </g>
        </g>
        <path id="Path_3238" data-name="Path 3238" d="M81.3,0a81.295,81.295,0,1,0,81.3,81.294A81.3,81.3,0,0,0,81.3,0Zm0,145.683a64.388,64.388,0,1,1,64.389-64.389A64.389,64.389,0,0,1,81.3,145.683Z" transform="translate(37.605 31.983)" fill="#8db347"/>
        <g id="Group_6514" data-name="Group 6514" transform="translate(68.444 73.776)">
          <path id="Path_3239" data-name="Path 3239" d="M31.16,7.769C22.568-.824,10.366-2.552,3.907,3.907S-.823,22.568,7.768,31.16c5.528,5.528,12.541,8.2,18.563,7.69a12.555,12.555,0,0,1,9.963,3.6L67.781,73.932a4.35,4.35,0,0,0,6.152,0h0a4.349,4.349,0,0,0,0-6.151L42.445,36.295a12.552,12.552,0,0,1-3.595-9.963C39.361,20.309,36.687,13.3,31.16,7.769Z" transform="translate(0 3.915)" fill="#cce354"/>
          <path id="Path_3240" data-name="Path 3240" d="M77.929,19.551a2.731,2.731,0,0,0-3.423.422L65.78,28.7a38.606,38.606,0,0,1-6.283,5.14l-.169.108a1.119,1.119,0,0,1-1.385-.153h0a1.115,1.115,0,0,1,0-1.576l14.4-14.4a2.733,2.733,0,0,0,.423-3.423,2.66,2.66,0,0,0-4.1-.417L54.916,27.729a2.149,2.149,0,0,1-3.038,0h0a2.149,2.149,0,0,1,0-3.038L65.55,11.019A2.733,2.733,0,0,0,65.973,7.6a2.661,2.661,0,0,0-4.1-.417L47.389,21.663a1.113,1.113,0,0,1-1.575,0l-.485-.485a1.114,1.114,0,0,1-.153-1.383l.108-.17a38.715,38.715,0,0,1,5.14-6.283L59.15,4.617a2.734,2.734,0,0,0,.422-3.423,2.661,2.661,0,0,0-4.1-.417L46.666,9.585a44.019,44.019,0,0,0-5.845,7.152c-3.609,5.58-4.544,9.738-4.17,12.805a12.793,12.793,0,0,1-3.76,10.538C25.569,47.4,6.982,65.991,1.272,71.7a4.348,4.348,0,0,0,0,6.148h0a4.35,4.35,0,0,0,6.152,0L39.04,46.234a12.8,12.8,0,0,1,10.54-3.762c3.069.374,7.225-.56,12.8-4.17a43.923,43.923,0,0,0,7.155-5.845l8.806-8.807A2.659,2.659,0,0,0,77.929,19.551Z" transform="translate(21.791)" fill="#cce354"/>
        </g>
        <g id="Group_6517" data-name="Group 6517" transform="translate(26.744 175.416)">
          <g id="Group_6516" data-name="Group 6516">
            <g id="Group_6515" data-name="Group 6515">
              <path id="Path_3241" data-name="Path 3241" d="M1.377,2.879A6.239,6.239,0,0,1,6,.018a9.207,9.207,0,0,1,5.649,1.733L10.439,4.9Q5.69,1.86,3.7,4.579A2.8,2.8,0,0,0,3.067,6.77,3.232,3.232,0,0,0,4.49,8.722a5.581,5.581,0,0,0,1.354.748A4.347,4.347,0,0,0,7.3,9.73a9.335,9.335,0,0,0,1.353-.068q.577-.078,1.578-.266l5.75-1.243a7.849,7.849,0,0,1,3.193-.063,7.824,7.824,0,0,1,3,1.437,5.859,5.859,0,0,1,2.6,3.953,6.349,6.349,0,0,1-1.358,4.6,6.034,6.034,0,0,1-4.091,2.846,8.507,8.507,0,0,1-5.279-1.53l1.132-2.993c.485.3.928.554,1.327.755a7.242,7.242,0,0,0,1.294.5,3.525,3.525,0,0,0,1.245.146,2.5,2.5,0,0,0,1.106-.386,3.14,3.14,0,0,0,.981-1.005q1.544-2.458-.614-4.038a4.219,4.219,0,0,0-1.791-.819,6.012,6.012,0,0,0-2.1.109l-5.769,1.267a13.642,13.642,0,0,1-4.3.254,7.905,7.905,0,0,1-3.845-1.548,6.057,6.057,0,0,1-2.656-4.1A6.251,6.251,0,0,1,1.377,2.879Z" transform="translate(161.781 0.719)" fill="#66852e"/>
              <path id="Path_3242" data-name="Path 3242" d="M10.771,0,24.558,23l-2.58,2.406L0,10.042,2.544,7.67l5.388,4.015,3.9-3.635L8.237,2.363Zm2.494,10.283-3.2,2.988,9.687,7.167Z" transform="translate(147.398 10.607)" fill="#66852e"/>
              <path id="Path_3243" data-name="Path 3243" d="M3.045,0,16.051,19.6l3.993-2.651,1.5,2.254L10.654,26.425l-1.5-2.253,3.849-2.555L0,2.02Z" transform="translate(139.931 23.552)" fill="#66852e"/>
              <path id="Path_3244" data-name="Path 3244" d="M3.231,0,14.669,23.6l-3.23,1.566L0,1.567Z" transform="translate(129.758 29.523)" fill="#66852e"/>
              <path id="Path_3245" data-name="Path 3245" d="M4.49.4A6.238,6.238,0,0,1,9.908.845a9.21,9.21,0,0,1,3.52,4.748l-2.844,1.82q-2.017-5.27-5.232-4.26A2.8,2.8,0,0,0,3.541,4.541a3.245,3.245,0,0,0-.013,2.415,5.6,5.6,0,0,0,.648,1.4A4.327,4.327,0,0,0,5.192,9.435a9.433,9.433,0,0,0,1.13.748q.509.28,1.427.72l5.365,2.412a7.861,7.861,0,0,1,2.608,1.844,7.85,7.85,0,0,1,1.559,2.934,5.862,5.862,0,0,1-.25,4.726,6.352,6.352,0,0,1-3.824,2.9,6.039,6.039,0,0,1-4.983-.136,8.508,8.508,0,0,1-3.34-4.366l2.687-1.736q.315.795.62,1.4a7.185,7.185,0,0,0,.747,1.166,3.581,3.581,0,0,0,.915.857,2.537,2.537,0,0,0,1.12.346,3.187,3.187,0,0,0,1.389-.229q2.7-1.06,1.9-3.613a4.226,4.226,0,0,0-.955-1.723,6,6,0,0,0-1.755-1.157l-5.395-2.4a13.641,13.641,0,0,1-3.613-2.347A7.9,7.9,0,0,1,.368,8.245,6.051,6.051,0,0,1,.663,3.371,6.255,6.255,0,0,1,4.49.4Z" transform="translate(114.457 34.48)" fill="#66852e"/>
              <path id="Path_3246" data-name="Path 3246" d="M6.988,0l3.43,26L.382,27.324l-.343-2.6,6.413-.847-1.14-8.641L.341,15.89,0,13.3l4.97-.655L3.366.477Z" transform="translate(102.256 37.647)" fill="#66852e"/>
              <path id="Path_3247" data-name="Path 3247" d="M14.717.529,8.177,26.537l-3.525-.128L0,0,3.478.125l.964,6.65,5.327.192L11.255.4ZM9.2,9.559,4.821,9.4,6.592,21.32Z" transform="translate(82.99 38.635)" fill="#66852e"/>
              <path id="Path_3248" data-name="Path 3248" d="M11.251.266a8.46,8.46,0,0,1,2.684,1.092,5.547,5.547,0,0,1,1.684,1.634,5.916,5.916,0,0,1,.811,2.136A9.363,9.363,0,0,1,16.55,7.6a18.609,18.609,0,0,1-.461,2.768l-2.137,9.02a19.943,19.943,0,0,1-.875,2.832,9.716,9.716,0,0,1-1.228,2.2,5.41,5.41,0,0,1-1.675,1.506,5.511,5.511,0,0,1-2.225.643,8.982,8.982,0,0,1-2.873-.258q-3.447-.817-4.5-3.033a8.857,8.857,0,0,1-.194-5.833l.482-2.033,3.371.8-.427,1.8c-.092.39-.162.695-.209.917s-.1.5-.165.831a4.853,4.853,0,0,0-.1.789c0,.194,0,.423.008.684a1.81,1.81,0,0,0,.117.638,4.6,4.6,0,0,0,.28.538,1.5,1.5,0,0,0,.439.478,4.21,4.21,0,0,0,.647.357,4.937,4.937,0,0,0,.873.289,4.763,4.763,0,0,0,1.331.144,2.181,2.181,0,0,0,1.029-.292,3.248,3.248,0,0,0,.758-.626,3.6,3.6,0,0,0,.584-.991c.176-.421.323-.828.446-1.228s.253-.9.394-1.491l2.392-10.1a8.115,8.115,0,0,0,.225-4.174,2.9,2.9,0,0,0-2.3-1.732A4.409,4.409,0,0,0,9.3,2.909a1.914,1.914,0,0,0-.967.306,3.429,3.429,0,0,0-.706.614,3.344,3.344,0,0,0-.539.969,12.428,12.428,0,0,0-.4,1.181q-.154.549-.366,1.441L5.875,9.3,2.5,8.5l.45-1.893a17.153,17.153,0,0,1,.8-2.574A8.944,8.944,0,0,1,4.9,2.021,5.051,5.051,0,0,1,6.468.628,5.22,5.22,0,0,1,8.56.026,8.436,8.436,0,0,1,11.251.266Z" transform="translate(61.968 36.011)" fill="#66852e"/>
              <path id="Path_3249" data-name="Path 3249" d="M18.137,1.474,8.661,23l4.387,1.932-1.089,2.475L0,22.143l1.09-2.475,4.227,1.86L14.793,0Z" transform="translate(42.007 30.857)" fill="#66852e"/>
              <path id="Path_3250" data-name="Path 3250" d="M16.747,1.875,3.062,24.244,0,22.371,13.685,0Z" transform="translate(33.016 25.292)" fill="#66852e"/>
              <path id="Path_3251" data-name="Path 3251" d="M20.175,2a8.7,8.7,0,0,1,2.177,2.627,5.1,5.1,0,0,1,.57,2.755,7.636,7.636,0,0,1-.811,2.8A14.739,14.739,0,0,1,20.1,13.121l-6.45,7.554q-2.66,3.117-5.3,3.637T2.8,22.35Q-.1,19.876,0,17.167a9.852,9.852,0,0,1,2.747-5.8L9.211,3.8A10.189,10.189,0,0,1,14.581.11Q17.289-.468,20.175,2Zm-.722,3.584a4.18,4.18,0,0,0-1.137-1.409,4.169,4.169,0,0,0-1.57-.9,2.284,2.284,0,0,0-1.468.076,4.791,4.791,0,0,0-1.35.813,12.637,12.637,0,0,0-1.411,1.447L5.06,14.34a12.139,12.139,0,0,0-1.182,1.591,4.624,4.624,0,0,0-.566,1.43A2.185,2.185,0,0,0,3.493,18.8a4.439,4.439,0,0,0,1.153,1.39,4.44,4.44,0,0,0,1.554.92,2.172,2.172,0,0,0,1.443-.047,4.591,4.591,0,0,0,1.323-.783,12.069,12.069,0,0,0,1.386-1.415l7.457-8.734a12.6,12.6,0,0,0,1.208-1.622,4.77,4.77,0,0,0,.591-1.459A2.286,2.286,0,0,0,19.453,5.581Z" transform="translate(17.139 15.955)" fill="#66852e"/>
              <path id="Path_3252" data-name="Path 3252" d="M28.692,10.275,7.94,26.31,6.421,24.345,15.647,7.8,1.867,18.45,0,16.034,20.753,0l1.43,1.853-9.558,16.94L26.807,7.835Z" fill="#66852e"/>
            </g>
          </g>
        </g>
      </g>
    </g>
  </g>
</svg>
