<svg xmlns="http://www.w3.org/2000/svg" width="150" height="150" viewBox="0 0 150 150">
  <g id="Dessert" transform="translate(3260 7096)">
    <rect id="Rectangle_1295" data-name="Rectangle 1295" width="150" height="150" transform="translate(-3260 -7096)" fill="none"/>
    <g id="Group_6375" data-name="Group 6375" transform="translate(-3255.382 -7093.523)">
      <circle id="Ellipse_8" data-name="Ellipse 8" cx="43.031" cy="43.031" r="43.031" transform="translate(55.546 61.462)" fill="#db4f44" opacity="0.15"/>
      <g id="Layer_2" data-name="Layer 2" transform="translate(0 0)">
        <g id="Layer_1" data-name="Layer 1" transform="translate(0 0)">
          <path id="Path_2222" data-name="Path 2222" d="M4.92,32.19H93.468S89.66,76.145,49.513,76.145C7.232,76.145,4.92,32.19,4.92,32.19Z" transform="translate(2.873 30.035)" fill="none" stroke="#e21e24" stroke-linecap="round" stroke-miterlimit="10" stroke-width="3"/>
          <path id="Path_2223" data-name="Path 2223" d="M44.372,54.15S48.618,80.064,5.6,80.064H48.618" transform="translate(3.549 51.85)" fill="none" stroke="#e21e24" stroke-linecap="round" stroke-miterlimit="10" stroke-width="3"/>
          <path id="Path_2224" data-name="Path 2224" d="M31.526,54.15S27.18,80.064,71.394,80.064H27.18" transform="translate(24.987 51.85)" fill="none" stroke="#e21e24" stroke-linecap="round" stroke-miterlimit="10" stroke-width="3"/>
          <path id="Path_2225" data-name="Path 2225" d="M58.7,40.06S47.114,60.373,27.2,58.838" transform="translate(25.007 37.853)" fill="none" stroke="#e21e24" stroke-linecap="round" stroke-miterlimit="10" stroke-width="3"/>
          <line id="Line_4" data-name="Line 4" x1="0.897" y2="3.728" transform="translate(86.055 68.524)" fill="none" stroke="#e21e24" stroke-linecap="round" stroke-miterlimit="10" stroke-width="3"/>
          <path id="Path_2226" data-name="Path 2226" d="M9.13,49.812a35.882,35.882,0,1,1,71.763,0" transform="translate(7.056 11.895)" fill="none" stroke="#e21e24" stroke-linecap="round" stroke-miterlimit="10" stroke-width="3"/>
          <path id="Path_2227" data-name="Path 2227" d="M24.434,23.426a10.924,10.924,0,1,1,16.685-.319" transform="translate(19.56 3.316)" fill="none" stroke="#e21e24" stroke-linecap="round" stroke-miterlimit="10" stroke-width="3"/>
          <path id="Path_2228" data-name="Path 2228" d="M38.124,1.025S27.2-.729,27.2,16.514" transform="translate(25.007 -0.975)" fill="none" stroke="#e21e24" stroke-linecap="round" stroke-miterlimit="10" stroke-width="3"/>
          <path id="Path_2229" data-name="Path 2229" d="M28.3,28.977,9.123,9.421a2.173,2.173,0,0,0-3.09,0L1.628,13.807a2.193,2.193,0,0,0,0,3.05L21.562,37.688" transform="translate(-1.01 6.775)" fill="none" stroke="#e21e24" stroke-linecap="round" stroke-miterlimit="10" stroke-width="3"/>
          <path id="Path_2230" data-name="Path 2230" d="M39.87,28.957,59.047,9.4a2.173,2.173,0,0,1,3.01,0l4.405,4.386a2.193,2.193,0,0,1,0,3.05L46.528,37.669" transform="translate(37.594 6.795)" fill="none" stroke="#e21e24" stroke-linecap="round" stroke-miterlimit="10" stroke-width="3"/>
          <path id="Path_2231" data-name="Path 2231" d="M27.13,13.93V27.645a4.226,4.226,0,0,0,4.226,4.226h.319A4.226,4.226,0,0,0,35.9,27.645h0a4.226,4.226,0,0,1,4.226-4.226h.239a4.226,4.226,0,0,1,4.226,4.226v9.19A4.226,4.226,0,0,0,48.8,41.06h.419a4.226,4.226,0,0,0,4.226-4.226h0a4.226,4.226,0,0,1,4.226-4.246h.917" transform="translate(24.937 11.895)" fill="none" stroke="#e21e24" stroke-linecap="round" stroke-miterlimit="10" stroke-width="3"/>
        </g>
      </g>
    </g>
  </g>
</svg>
