<svg xmlns="http://www.w3.org/2000/svg" xmlns:xlink="http://www.w3.org/1999/xlink" width="308" height="308" viewBox="0 0 308 308">
  <defs>
    <linearGradient id="linear-gradient" x1="0.5" x2="0.5" y2="1" gradientUnits="objectBoundingBox">
      <stop offset="0" stop-color="#f3f3f3"/>
      <stop offset="1" stop-color="#fff"/>
    </linearGradient>
    <clipPath id="clip-path">
      <circle id="Ellipse_42" data-name="Ellipse 42" cx="126" cy="126" r="126" transform="translate(-0.101)" fill="#fff" stroke="#707070" stroke-width="1"/>
    </clipPath>
  </defs>
  <g id="Group_7295" data-name="Group 7295" transform="translate(-1018 -3101)">
    <circle id="Ellipse_38" data-name="Ellipse 38" cx="154" cy="154" r="154" transform="translate(1018 3101)" fill="url(#linear-gradient)"/>
    <g id="Mask_Group_48" data-name="Mask Group 48" transform="translate(1046.101 3129)" clip-path="url(#clip-path)">
      <g id="Group_6529" data-name="Group 6529" transform="translate(5.654 4.272)">
        <g id="Group_6521" data-name="Group 6521" transform="translate(61.671 80.914)">
          <g id="Group_6519" data-name="Group 6519" transform="translate(57.709)">
            <path id="Path_3253" data-name="Path 3253" d="M-582.435-230.351s22.521-26.29,35.153-71.933" transform="translate(582.435 317.794)" fill="none" stroke="#66852e" stroke-linecap="round" stroke-miterlimit="10" stroke-width="2"/>
            <path id="Path_3254" data-name="Path 3254" d="M-578.28-283.963c-.028.432,9.551,22.345,9.551,22.345l20.841-7.848" transform="translate(584.158 325.394)" fill="none" stroke="#66852e" stroke-linecap="round" stroke-miterlimit="10" stroke-width="2"/>
            <path id="Path_3255" data-name="Path 3255" d="M-571.7-296.608c-.028.431,10.223,20.623,10.223,20.623l19.6-7.38" transform="translate(586.888 320.149)" fill="none" stroke="#66852e" stroke-linecap="round" stroke-miterlimit="10" stroke-width="2"/>
            <path id="Path_3256" data-name="Path 3256" d="M-567.715-310.276c.007.432,11.836,19.742,11.836,19.742l18.95-8.92" transform="translate(588.541 314.479)" fill="none" stroke="#66852e" stroke-linecap="round" stroke-miterlimit="10" stroke-width="2"/>
            <path id="Path_3257" data-name="Path 3257" d="M-571.529-264.721C-555-257.995-544.791-275.6-544.791-275.6S-564.391-281.078-571.529-264.721Z" transform="translate(586.959 328.496)" fill="#cce354"/>
            <path id="Path_3258" data-name="Path 3258" d="M-568.081-260.33c6.726-16.532-10.881-26.739-10.881-26.739S-584.44-267.469-568.081-260.33Z" transform="translate(583.51 324.105)" fill="#cce354"/>
            <path id="Path_3259" data-name="Path 3259" d="M-565.259-277.555c16.532,6.726,26.739-10.881,26.739-10.881S-558.12-293.912-565.259-277.555Z" transform="translate(589.559 323.173)" fill="#cce354"/>
            <path id="Path_3260" data-name="Path 3260" d="M-561.811-273.164c6.726-16.532-10.881-26.739-10.881-26.739S-578.168-280.3-561.811-273.164Z" transform="translate(586.111 318.782)" fill="#cce354"/>
            <path id="Path_3261" data-name="Path 3261" d="M-559.651-291.177c17.137,4.986,25.475-13.579,25.475-13.579S-554.237-308.183-559.651-291.177Z" transform="translate(591.885 316.652)" fill="#cce354"/>
            <path id="Path_3262" data-name="Path 3262" d="M-555.587-287.772c4.986-17.137-13.581-25.475-13.581-25.475S-572.594-293.185-555.587-287.772Z" transform="translate(587.821 313.247)" fill="#cce354"/>
          </g>
          <g id="Group_6520" data-name="Group 6520">
            <path id="Path_3263" data-name="Path 3263" d="M-572.129-230.351s-22.521-26.29-35.153-71.933" transform="translate(629.838 317.794)" fill="none" stroke="#66852e" stroke-linecap="round" stroke-miterlimit="10" stroke-width="2"/>
            <path id="Path_3264" data-name="Path 3264" d="M-577.68-283.963c.028.432-9.551,22.345-9.551,22.345l-20.841-7.848" transform="translate(629.51 325.394)" fill="none" stroke="#66852e" stroke-linecap="round" stroke-miterlimit="10" stroke-width="2"/>
            <path id="Path_3265" data-name="Path 3265" d="M-584.427-296.608c.028.431-10.223,20.623-10.223,20.623l-19.6-7.38" transform="translate(626.947 320.149)" fill="none" stroke="#66852e" stroke-linecap="round" stroke-miterlimit="10" stroke-width="2"/>
            <path id="Path_3266" data-name="Path 3266" d="M-588.13-310.276c-.006.432-11.836,19.742-11.836,19.742l-18.95-8.92" transform="translate(625.012 314.479)" fill="none" stroke="#66852e" stroke-linecap="round" stroke-miterlimit="10" stroke-width="2"/>
            <path id="Path_3267" data-name="Path 3267" d="M-585.5-264.721c-16.532,6.726-26.74-10.881-26.74-10.881S-592.641-281.078-585.5-264.721Z" transform="translate(627.781 328.496)" fill="#cce354"/>
            <path id="Path_3268" data-name="Path 3268" d="M-592.892-260.33c-6.726-16.532,10.881-26.739,10.881-26.739S-576.534-267.469-592.892-260.33Z" transform="translate(635.171 324.105)" fill="#cce354"/>
            <path id="Path_3269" data-name="Path 3269" d="M-591.772-277.555c-16.532,6.726-26.739-10.881-26.739-10.881S-598.91-293.912-591.772-277.555Z" transform="translate(625.18 323.173)" fill="#cce354"/>
            <path id="Path_3270" data-name="Path 3270" d="M-599.162-273.164c-6.726-16.532,10.881-26.739,10.881-26.739S-582.8-280.3-599.162-273.164Z" transform="translate(632.571 318.782)" fill="#cce354"/>
            <path id="Path_3271" data-name="Path 3271" d="M-597.75-291.177c-17.137,4.986-25.475-13.579-25.475-13.579S-603.165-308.183-597.75-291.177Z" transform="translate(623.225 316.652)" fill="#cce354"/>
            <path id="Path_3272" data-name="Path 3272" d="M-604.97-287.772c-4.986-17.137,13.579-25.475,13.579-25.475S-587.963-293.185-604.97-287.772Z" transform="translate(630.444 313.247)" fill="#cce354"/>
          </g>
        </g>
        <g id="Group_6524" data-name="Group 6524" transform="translate(50.799 199.764)">
          <g id="Group_6523" data-name="Group 6523">
            <g id="Group_6522" data-name="Group 6522">
              <path id="Path_3273" data-name="Path 3273" d="M-627.3-203.749a8.983,8.983,0,0,1-2.32-2.023A5.865,5.865,0,0,1-630.75-208a6.284,6.284,0,0,1-.078-2.425,9.943,9.943,0,0,1,.734-2.53,19.918,19.918,0,0,1,1.419-2.622l5.263-8.326a20.923,20.923,0,0,1,1.856-2.545,10.307,10.307,0,0,1,1.992-1.783,5.774,5.774,0,0,1,2.2-.935,5.9,5.9,0,0,1,2.458.122,9.627,9.627,0,0,1,2.8,1.252q3.183,2.012,3.473,4.6t-1.818,5.929l-1.186,1.876-3.111-1.967,1.05-1.664q.342-.539.528-.849c.123-.207.274-.465.451-.778a5.266,5.266,0,0,0,.371-.76c.071-.194.146-.426.228-.692a1.857,1.857,0,0,0,.1-.681,4.911,4.911,0,0,0-.095-.637,1.632,1.632,0,0,0-.276-.632,4.327,4.327,0,0,0-.528-.581,5.143,5.143,0,0,0-.78-.593,5.058,5.058,0,0,0-1.287-.6,2.322,2.322,0,0,0-1.135-.061,3.4,3.4,0,0,0-.978.366,3.783,3.783,0,0,0-.93.794q-.479.541-.871,1.079t-.911,1.364l-5.893,9.321a8.613,8.613,0,0,0-1.665,4.116,3.076,3.076,0,0,0,1.716,2.537,4.639,4.639,0,0,0,1.219.572,2.029,2.029,0,0,0,1.078.025,3.626,3.626,0,0,0,.921-.372,3.6,3.6,0,0,0,.876-.788,13.22,13.22,0,0,0,.811-1.048q.346-.5.867-1.321l1.1-1.735,3.111,1.968-1.1,1.747a18.116,18.116,0,0,1-1.7,2.308,9.536,9.536,0,0,1-1.845,1.628,5.407,5.407,0,0,1-2.054.859,5.567,5.567,0,0,1-2.312-.119A8.9,8.9,0,0,1-627.3-203.749Z" transform="translate(630.909 229.241)" fill="#66852e"/>
              <path id="Path_3274" data-name="Path 3274" d="M-611.373-195.48a9.247,9.247,0,0,1-3.12-1.848,5.407,5.407,0,0,1-1.559-2.549,8.134,8.134,0,0,1-.2-3.094,15.673,15.673,0,0,1,.958-3.663l3.739-9.871q1.543-4.072,4-5.542t6.258-.03q3.788,1.437,4.653,4.181t-.665,6.785l-3.745,9.887q-1.545,4.072-4.046,5.622T-611.373-195.48Zm-.566-3.845a4.452,4.452,0,0,0,1.643,1,4.471,4.471,0,0,0,1.894.34,2.436,2.436,0,0,0,1.443-.6,5.1,5.1,0,0,0,1.057-1.3,13.519,13.519,0,0,0,.894-1.954l4.322-11.412a12.991,12.991,0,0,0,.611-2.016,4.892,4.892,0,0,0,.052-1.633,2.333,2.333,0,0,0-.695-1.369,4.727,4.727,0,0,0-1.652-.976,4.71,4.71,0,0,0-1.885-.362,2.317,2.317,0,0,0-1.427.563,4.9,4.9,0,0,0-1.043,1.259,12.853,12.853,0,0,0-.877,1.914l-4.324,11.412a13.278,13.278,0,0,0-.625,2.054,5.079,5.079,0,0,0-.068,1.674A2.433,2.433,0,0,0-611.939-199.326Z" transform="translate(636.964 231.917)" fill="#66852e"/>
              <path id="Path_3275" data-name="Path 3275" d="M-600.446-191.833l4.382-27.522,2.606.415,4.908,19.521,2.912-18.276,3.2.511-4.382,27.522-2.457-.392-4.94-20.07-2.994,18.807Z" transform="translate(643.545 233.342)" fill="#66852e"/>
              <path id="Path_3276" data-name="Path 3276" d="M-579.759-189.819l-.485-24.989-5.092.1-.057-2.873,13.883-.269.055,2.873-4.908.095.485,24.991Z" transform="translate(649.789 233.965)" fill="#66852e"/>
              <path id="Path_3277" data-name="Path 3277" d="M-567.7-190.38l-5.47-27.327,5.489-1.1q4.153-.832,6.429.478t3.045,5.15q1.057,5.274-2.1,7.054l6.649,12.933-3.691.739-6.16-12.1-2.95.59,2.567,12.822ZM-567-206.7l1.433-.287a5.279,5.279,0,0,0,3.356-1.691q.866-1.195.352-3.765a5.3,5.3,0,0,0-1.613-3.312q-1.118-.821-3.654-.314l-1.682.337Z" transform="translate(654.861 233.437)" fill="#66852e"/>
              <path id="Path_3278" data-name="Path 3278" d="M-543.086-196.805a9.222,9.222,0,0,1-3.531.819,5.418,5.418,0,0,1-2.889-.765,8.167,8.167,0,0,1-2.276-2.1,15.575,15.575,0,0,1-1.839-3.311l-4.116-9.72q-1.7-4.009-.939-6.767t4.5-4.343q3.729-1.579,6.252-.192t4.206,5.365l4.123,9.735q1.7,4.011.961,6.859T-543.086-196.805Zm-3.064-2.39a4.434,4.434,0,0,0,1.88-.412,4.431,4.431,0,0,0,1.6-1.062,2.436,2.436,0,0,0,.625-1.433,5.1,5.1,0,0,0-.132-1.669,13.568,13.568,0,0,0-.7-2.029l-4.756-11.238a12.93,12.93,0,0,0-.952-1.879,4.909,4.909,0,0,0-1.091-1.218,2.322,2.322,0,0,0-1.447-.509,4.751,4.751,0,0,0-1.869.436,4.742,4.742,0,0,0-1.614,1.038,2.324,2.324,0,0,0-.641,1.395,4.9,4.9,0,0,0,.116,1.631,12.92,12.92,0,0,0,.686,1.989l4.758,11.238a13.59,13.59,0,0,0,.968,1.918,5.074,5.074,0,0,0,1.106,1.255A2.431,2.431,0,0,0-546.151-199.195Z" transform="translate(660.773 231.484)" fill="#66852e"/>
              <path id="Path_3279" data-name="Path 3279" d="M-532.189-203.089l-15.305-23.29,3.245-2.133,13.772,20.959,5.942-3.9,1.532,2.332Z" transform="translate(665.509 229.543)" fill="#66852e"/>
            </g>
          </g>
        </g>
        <g id="Group_6527" data-name="Group 6527">
          <g id="Group_6526" data-name="Group 6526">
            <g id="Group_6525" data-name="Group 6525">
              <path id="Path_3280" data-name="Path 3280" d="M-639.054-282.815l-27.761-2.453,1.1-12.474,4.186.371-.562,6.345,6.864.607.429-4.839,4.268.376-.427,4.839,8.288.733.567-6.412,4.152.366Z" transform="translate(666.815 400.593)" fill="#66852e"/>
              <path id="Path_3281" data-name="Path 3281" d="M-638.441-290.43l-12.965-9.338-13.774,1.477,1.6-5.61,8.076-.863-6.57-4.423,1.419-4.98,12.546,8.66,14.4-1.527-1.58,5.545-8.912.975,7.163,5.17Z" transform="translate(667.493 393.78)" fill="#66852e"/>
              <path id="Path_3282" data-name="Path 3282" d="M-631.346-310.681a10.929,10.929,0,0,1-2.439,3.216,5.815,5.815,0,0,1-2.9,1.4,8.075,8.075,0,0,1-3.212-.153,15.786,15.786,0,0,1-3.612-1.44l-8.774-4.656a16.229,16.229,0,0,1-3.285-2.218,7.96,7.96,0,0,1-1.941-2.581,5.749,5.749,0,0,1-.451-3.169,11.2,11.2,0,0,1,1.314-3.821,11.387,11.387,0,0,1,2.3-3.125,5.513,5.513,0,0,1,2.651-1.409,6.911,6.911,0,0,1,2.834.038,12.235,12.235,0,0,1,3.081,1.187l2.167,1.15-2.82,5.315-2.48-1.316q-.581-.306-.884-.45a6.739,6.739,0,0,0-.819-.3,2.047,2.047,0,0,0-.845-.115,1.675,1.675,0,0,0-.7.3,2.082,2.082,0,0,0-.642.763,2.063,2.063,0,0,0-.272.959,1.715,1.715,0,0,0,.158.78,2.352,2.352,0,0,0,.553.675,5.365,5.365,0,0,0,.756.57c.239.147.54.317.907.511l11.48,6.089a5.921,5.921,0,0,0,2.469.815,1.681,1.681,0,0,0,1.559-1.055,1.994,1.994,0,0,0,.259-.938,1.652,1.652,0,0,0-.158-.758,2.166,2.166,0,0,0-.567-.654,5.542,5.542,0,0,0-.741-.536c-.223-.132-.522-.3-.9-.5l-2.583-1.372,2.82-5.314,2.124,1.125a14.24,14.24,0,0,1,2.279,1.477,8.2,8.2,0,0,1,1.638,1.773,5.612,5.612,0,0,1,.9,2.131,6.579,6.579,0,0,1-.074,2.558A11.427,11.427,0,0,1-631.346-310.681Z" transform="translate(670.466 387.724)" fill="#66852e"/>
              <path id="Path_3283" data-name="Path 3283" d="M-628.6-315.494l-21.585-17.627,7.919-9.7,3.255,2.658-4.029,4.933,5.338,4.359,3.073-3.762,3.319,2.711-3.073,3.762,6.446,5.263,4.072-4.987,3.228,2.637Z" transform="translate(673.711 381.895)" fill="#66852e"/>
              <path id="Path_3284" data-name="Path 3284" d="M-622.041-324.89l-18.186-21.12,4.663-4.012,15.464,17.959,4.841-4.168,2.719,3.158Z" transform="translate(677.843 378.908)" fill="#66852e"/>
              <path id="Path_3285" data-name="Path 3285" d="M-614.311-331.551l-14.229-23.964,5.29-3.141,12.1,20.379,5.492-3.261,2.128,3.585Z" transform="translate(682.691 375.326)" fill="#66852e"/>
              <path id="Path_3286" data-name="Path 3286" d="M-605.6-336.142l-9.783-26.094,11.726-4.4,1.474,3.934-5.965,2.235,2.419,6.454,4.549-1.706,1.505,4.014-4.548,1.7,2.92,7.791,6.028-2.259,1.463,3.9Z" transform="translate(688.148 372.018)" fill="#66852e"/>
              <path id="Path_3287" data-name="Path 3287" d="M-596.35-340.129l-4.469-27.508,4.281-.695,7.8,12.286-2.146-13.206,5.045-.819,4.469,27.508-4.116.668-7.987-13.313,2.313,14.236Z" transform="translate(694.189 370.592)" fill="#66852e"/>
              <path id="Path_3288" data-name="Path 3288" d="M-580.7-342.44l.794-23.3-4.283-.146.154-4.553,14.681.5-.156,4.551-4.233-.144-.792,23.3Z" transform="translate(701.088 370.439)" fill="#66852e"/>
              <path id="Path_3289" data-name="Path 3289" d="M-553.938-331.467a11.7,11.7,0,0,1-2.1-2.9,14.869,14.869,0,0,1-1.535-3.824l-.538-.192a11.323,11.323,0,0,1-3.516-1.92,5.852,5.852,0,0,1-1.829-2.607,7.648,7.648,0,0,1-.341-3.169,15.529,15.529,0,0,1,.914-3.8l3.489-9.679a15.465,15.465,0,0,1,1.722-3.514,7.6,7.6,0,0,1,2.279-2.208,5.832,5.832,0,0,1,3.066-.823,11.5,11.5,0,0,1,3.929.772q4.253,1.534,5.313,4.372t-.481,7.108l-3.489,9.677q-2.126,5.9-6.245,6.468a11.549,11.549,0,0,0,1.811,3.207Zm-3.518-11.525a2.055,2.055,0,0,0,.825.512,2.185,2.185,0,0,0,.965.143,1.653,1.653,0,0,0,.753-.248,2.29,2.29,0,0,0,.583-.6,4.957,4.957,0,0,0,.448-.777q.172-.376.365-.914l4.532-12.57c.126-.348.223-.655.3-.921a4.812,4.812,0,0,0,.146-.876,2.136,2.136,0,0,0-.071-.821,1.678,1.678,0,0,0-.423-.662,2.2,2.2,0,0,0-.835-.507,2.154,2.154,0,0,0-.961-.14,1.743,1.743,0,0,0-.736.235,1.96,1.96,0,0,0-.572.6,5,5,0,0,0-.429.765c-.1.236-.221.539-.355.908l-4.53,12.57c-.134.369-.236.68-.31.934a4.845,4.845,0,0,0-.163.871,2.051,2.051,0,0,0,.057.833A1.761,1.761,0,0,0-557.457-342.991Z" transform="translate(709.531 372.238)" fill="#66852e"/>
              <path id="Path_3290" data-name="Path 3290" d="M-545.42-331.749A12.446,12.446,0,0,1-548-333.879a6.737,6.737,0,0,1-1.374-2.214,5.4,5.4,0,0,1-.256-2.4,8.89,8.89,0,0,1,.69-2.575,19.3,19.3,0,0,1,1.554-2.847l10.342-16.051,5.114,3.3-10.833,16.813c-.236.368-.43.688-.577.959a6.5,6.5,0,0,0-.409.927,2.9,2.9,0,0,0-.187.928,1.685,1.685,0,0,0,.221.822,1.985,1.985,0,0,0,.7.723,1.96,1.96,0,0,0,.942.338,1.718,1.718,0,0,0,.832-.144,2.852,2.852,0,0,0,.768-.555,6.525,6.525,0,0,0,.68-.761c.188-.252.4-.557.63-.914l10.833-16.815,5.129,3.3-10.342,16.051a16.979,16.979,0,0,1-2.472,3.107,7.519,7.519,0,0,1-2.647,1.672,5.388,5.388,0,0,1-3.1.13A11.886,11.886,0,0,1-545.42-331.749Z" transform="translate(715.409 374.785)" fill="#66852e"/>
              <path id="Path_3291" data-name="Path 3291" d="M-539.755-330.986l23.526-15.844,4.894,4.949-16.129,23.324-4-4.039,3.533-4.841-2.859-2.892-4.868,3.49Zm11.965-1.551,2.093,2.117,6.621-8.652Z" transform="translate(719.518 380.232)" fill="#66852e"/>
              <path id="Path_3292" data-name="Path 3292" d="M-529.583-320.16l23.215-15.42,3.4,5.124-19.742,13.114,3.534,5.32-3.473,2.307Z" transform="translate(723.737 384.898)" fill="#66852e"/>
              <path id="Path_3293" data-name="Path 3293" d="M-523.516-311.351l25.271-11.753,2.595,5.578-25.271,11.753Z" transform="translate(726.253 390.073)" fill="#66852e"/>
              <path id="Path_3294" data-name="Path 3294" d="M-519.744-302.2l22.383-6.518-1.2-4.114,4.375-1.273,4.107,14.1-4.373,1.273-1.184-4.066-22.385,6.517Z" transform="translate(727.818 393.804)" fill="#66852e"/>
              <path id="Path_3295" data-name="Path 3295" d="M-517.058-291.461l11.344-1.106,15.878-6.887.563,5.772-8.524,3.5,9.016,1.535.542,5.571-16.9-3.62-11.341,1.106Z" transform="translate(728.932 399.882)" fill="#66852e"/>
            </g>
          </g>
        </g>
        <g id="Group_6528" data-name="Group 6528" transform="translate(33.856 34.011)">
          <path id="Path_3296" data-name="Path 3296" d="M-556.5-346.4a86.39,86.39,0,0,0-86.39,86.39,86.391,86.391,0,0,0,86.39,86.39,86.39,86.39,0,0,0,86.39-86.39A86.389,86.389,0,0,0-556.5-346.4Zm0,154.813a68.424,68.424,0,0,1-68.423-68.423A68.424,68.424,0,0,1-556.5-328.433a68.424,68.424,0,0,1,68.423,68.423A68.424,68.424,0,0,1-556.5-191.586Z" transform="translate(642.885 346.399)" fill="#8db347"/>
        </g>
      </g>
    </g>
  </g>
</svg>
