<svg xmlns="http://www.w3.org/2000/svg" width="21.315" height="28.42" viewBox="0 0 21.315 28.42">
  <path id="Icon_awesome-file-download" data-name="Icon awesome-file-download" d="M12.434,7.549V0H1.332A1.329,1.329,0,0,0,0,1.332V27.088A1.329,1.329,0,0,0,1.332,28.42H19.983a1.329,1.329,0,0,0,1.332-1.332V8.881H13.766A1.336,1.336,0,0,1,12.434,7.549Zm4.244,11.732-5.352,5.312a.946.946,0,0,1-1.334,0L4.639,19.281a.888.888,0,0,1,.624-1.519H8.881V13.322a.888.888,0,0,1,.888-.888h1.776a.888.888,0,0,1,.888.888v4.441h3.618A.888.888,0,0,1,16.677,19.281ZM20.926,5.828,15.492.389A1.331,1.331,0,0,0,14.549,0H14.21V7.1h7.1V6.766A1.328,1.328,0,0,0,20.926,5.828Z" fill="#e21e24"/>
</svg>
