<svg xmlns="http://www.w3.org/2000/svg" width="150" height="150" viewBox="0 0 150 150">
  <g id="Flour" transform="translate(2855 7096)">
    <rect id="Rectangle_1296" data-name="Rectangle 1296" width="150" height="150" transform="translate(-2855 -7096)" fill="none"/>
    <g id="Group_6376" data-name="Group 6376" transform="translate(-2852 -7090)">
      <circle id="Ellipse_8" data-name="Ellipse 8" cx="39.281" cy="39.281" r="39.281" transform="translate(66.333 58.993)" fill="#ffc14e" opacity="0.2"/>
      <g id="Layer_2" data-name="Layer 2" transform="translate(0 0)">
        <g id="Layer_1" data-name="Layer 1" transform="translate(0 0)">
          <path id="Path_2240" data-name="Path 2240" d="M17.351,24.119a2.244,2.244,0,0,1,1.942-1.189h84.472a2.277,2.277,0,0,1,2.277,2.277v4.32s-.117,6.044-4.219,7.769c-1.49.636-3.131,0-4.688,0-3.349,0-5.844,2.712-7.953,5.023-3.968,4.42-11.721,4.554-17.3,3.968a18.853,18.853,0,0,1-8.941-3.349c-2.528-1.792-6.5-3.952-10.6-3.583A21.164,21.164,0,0,0,40.625,44.8s-10.95,8-19.758-3.332C14.17,32.742,16.062,26.58,17.351,24.119Z" transform="translate(9.171 13.788)" fill="none" stroke="#e21e24" stroke-linecap="round" stroke-miterlimit="10" stroke-width="3"/>
          <path id="Path_2241" data-name="Path 2241" d="M96.744,25.13s4.889,15.789,1.49,50.465a23.307,23.307,0,0,0,2.578,13.027c2.16,4.152,4.4,9.544,3.6,12.742a6.162,6.162,0,0,1-3.566,4.169,9.276,9.276,0,0,1-8.188-.368c-5.676-2.93-19.573-9.109-27.627-4.052-10.281,6.5-35.162-1.859-35.162-1.859" transform="translate(18.469 15.271)" fill="none" stroke="#e21e24" stroke-linecap="round" stroke-miterlimit="10" stroke-width="3"/>
          <path id="Path_2242" data-name="Path 2242" d="M17.026,29.26s-4.069,35.781,1.289,48.121" transform="translate(8.81 18.056)" fill="none" stroke="#e21e24" stroke-linecap="round" stroke-miterlimit="10" stroke-width="3"/>
          <path id="Path_2243" data-name="Path 2243" d="M63.37,31.74s1.808,7.233,0,19.389" transform="translate(41.06 19.729)" fill="none" stroke="#e21e24" stroke-linecap="round" stroke-miterlimit="10" stroke-width="3"/>
          <line id="Line_11" data-name="Line 11" y2="4.219" transform="translate(104.43 77.823)" fill="none" stroke="#e21e24" stroke-linecap="round" stroke-miterlimit="10" stroke-width="3"/>
          <path id="Path_2244" data-name="Path 2244" d="M22.52,34.269,44.638,11.43a17.581,17.581,0,0,1,24.7-.486l3.516,3.349" transform="translate(13.512 2.449)" fill="none" stroke="#e21e24" stroke-linecap="round" stroke-miterlimit="10" stroke-width="3"/>
          <line id="Line_12" data-name="Line 12" x2="11.017" y2="10.465" transform="translate(96.628 26.253)" fill="none" stroke="#e21e24" stroke-linecap="round" stroke-miterlimit="10" stroke-width="3"/>
          <line id="Line_13" data-name="Line 13" x1="2.043" y1="2.16" transform="translate(91.018 20.945)" fill="none" stroke="#e21e24" stroke-linecap="round" stroke-miterlimit="10" stroke-width="3"/>
          <line id="Line_14" data-name="Line 14" x1="2.059" y1="2.16" transform="translate(68.18 16.96)" fill="none" stroke="#e21e24" stroke-linecap="round" stroke-miterlimit="10" stroke-width="3"/>
          <line id="Line_15" data-name="Line 15" x1="2.043" y1="2.16" transform="translate(56.811 26.923)" fill="none" stroke="#e21e24" stroke-linecap="round" stroke-miterlimit="10" stroke-width="3"/>
          <line id="Line_16" data-name="Line 16" x1="2.043" y1="2.16" transform="translate(69.855 26.471)" fill="none" stroke="#e21e24" stroke-linecap="round" stroke-miterlimit="10" stroke-width="3"/>
          <path id="Path_2245" data-name="Path 2245" d="M43.978,20.539,26.883,3.026a6.7,6.7,0,0,0-9.41-.184h0a6.7,6.7,0,0,0-.251,9.527L34.485,30.385" transform="translate(8.68 -1.001)" fill="none" stroke="#e21e24" stroke-linecap="round" stroke-miterlimit="10" stroke-width="3"/>
          <path id="Path_2246" data-name="Path 2246" d="M30.385,73.114c0,10.046-6.58,15.555-14.7,15.555S1,83.227,1,73.114,7.58,52,15.684,52,30.385,63,30.385,73.114Z" transform="translate(-1 33.392)" fill="none" stroke="#e21e24" stroke-linecap="round" stroke-miterlimit="10" stroke-width="3"/>
          <path id="Path_2247" data-name="Path 2247" d="M17.625,59.391c.268-.184.536-.368.82-.536,8.623-5.308,21.382-5.442,25.635,1.473S42.406,78.579,33.85,83.87c-6.949,4.286-13.579,3.349-18.1-.854" transform="translate(8.947 35.411)" fill="none" stroke="#e21e24" stroke-linecap="round" stroke-miterlimit="10" stroke-width="3"/>
          <path id="Path_2248" data-name="Path 2248" d="M36.46,53.677s13.211-2.512,12.558,11.988C49.085,65.665,37.85,68.344,36.46,53.677Z" transform="translate(22.913 34.41)" fill="none" stroke="#e21e24" stroke-linecap="round" stroke-miterlimit="10" stroke-width="3"/>
          <path id="Path_2249" data-name="Path 2249" d="M36.46,47.257s13.211-2.512,12.558,11.988C49.085,59.245,37.85,61.908,36.46,47.257Z" transform="translate(22.913 30.081)" fill="none" stroke="#e21e24" stroke-linecap="round" stroke-miterlimit="10" stroke-width="3"/>
          <path id="Path_2250" data-name="Path 2250" d="M56.557,53.677S43.346,51.165,44,65.665C44.016,65.665,55.184,68.344,56.557,53.677Z" transform="translate(27.982 34.41)" fill="none" stroke="#e21e24" stroke-linecap="round" stroke-miterlimit="10" stroke-width="3"/>
          <path id="Path_2251" data-name="Path 2251" d="M56.557,47.257S43.346,44.745,44,59.245C44.016,59.245,55.184,61.908,56.557,47.257Z" transform="translate(27.982 30.081)" fill="none" stroke="#e21e24" stroke-linecap="round" stroke-miterlimit="10" stroke-width="3"/>
          <path id="Path_2252" data-name="Path 2252" d="M45.929,40.41s-8.958,9.008-.452,17.346C45.477,57.756,53.983,50.473,45.929,40.41Z" transform="translate(26.521 25.576)" fill="none" stroke="#e21e24" stroke-linecap="round" stroke-miterlimit="10" stroke-width="3"/>
        </g>
      </g>
    </g>
  </g>
</svg>
