<svg xmlns="http://www.w3.org/2000/svg" width="150" height="150" viewBox="0 0 150 150">
  <g id="Instant_Mix" data-name="Instant Mix" transform="translate(3675 7096)">
    <rect id="Rectangle_1294" data-name="Rectangle 1294" width="150" height="150" transform="translate(-3675 -7096)" fill="none"/>
    <g id="Group_6374" data-name="Group 6374" transform="translate(-3671.645 -7089.554)">
      <circle id="Ellipse_8" data-name="Ellipse 8" cx="38.766" cy="38.766" r="38.766" transform="translate(68.233 60.173)" fill="#ffc14e" opacity="0.2"/>
      <g id="Layer_2" data-name="Layer 2" transform="translate(0 0)">
        <g id="Layer_1" data-name="Layer 1" transform="translate(0 0)">
          <path id="Path_2213" data-name="Path 2213" d="M70.035,39.8H16V53.2A27.988,27.988,0,0,0,44.044,81.207H81.267A27.988,27.988,0,0,0,109.255,53.2V39.8h-18.6" transform="translate(12.35 33.323)" fill="none" stroke="#e21e24" stroke-linecap="round" stroke-miterlimit="10" stroke-width="3"/>
          <path id="Path_2214" data-name="Path 2214" d="M30.17,74.529a.961.961,0,0,1-.98-.961V70.4c0-4.768,5.861-8.632,13.193-8.632h17.4c7.237,0,13.193,3.769,13.193,8.632v3.11a.961.961,0,0,1-.98.961Z" transform="translate(24.019 52.76)" fill="none" stroke="#e21e24" stroke-linecap="round" stroke-miterlimit="10" stroke-width="3"/>
          <line id="Line_1" data-name="Line 1" x1="5.484" transform="translate(89.622 73.123)" fill="none" stroke="#e21e24" stroke-linecap="round" stroke-miterlimit="10" stroke-width="3"/>
          <path id="Path_2215" data-name="Path 2215" d="M23.67,39.8V59.552a5.654,5.654,0,0,0,5.654,5.654h0a5.654,5.654,0,0,0,5.654-5.654V56.027a5.654,5.654,0,0,0,5.654,5.654h0a5.654,5.654,0,0,0,5.654-5.654V39.8" transform="translate(19.135 33.323)" fill="none" stroke="#e21e24" stroke-linecap="round" stroke-miterlimit="10" stroke-width="3"/>
          <path id="Path_2216" data-name="Path 2216" d="M31.607,33.654l-7.953,7.9a1.055,1.055,0,0,1-1.47,0L2.922,22.345a6.634,6.634,0,0,1,0-9.424h0a6.634,6.634,0,0,1,9.424,0L31.607,32.184a1,1,0,0,1,0,1.47Z" transform="translate(-0.958 7.807)" fill="none" stroke="#e21e24" stroke-linecap="round" stroke-miterlimit="10" stroke-width="3"/>
          <line id="Line_2" data-name="Line 2" x1="9.537" y2="9.179" transform="translate(10.596 29.473)" fill="none" stroke="#e21e24" stroke-linecap="round" stroke-miterlimit="10" stroke-width="3"/>
          <path id="Path_2217" data-name="Path 2217" d="M23.547,52.841s-3.656-11.987,2.318-17.32L15.16,25.06" transform="translate(11.607 20.283)" fill="none" stroke="#e21e24" stroke-linecap="round" stroke-miterlimit="10" stroke-width="3"/>
          <path id="Path_2218" data-name="Path 2218" d="M57.48,49.539s-14.795-30-36.111-17.848a.377.377,0,0,0,.113.678c3.317.622,14.663,3.769,24.8,17.17" transform="translate(16.951 23.584)" fill="none" stroke="#e21e24" stroke-linecap="round" stroke-miterlimit="10" stroke-width="3"/>
          <path id="Path_2219" data-name="Path 2219" d="M28.181,46.969s-7.671-8.5-7.671-16.039" transform="translate(16.34 25.476)" fill="none" stroke="#e21e24" stroke-linecap="round" stroke-miterlimit="10" stroke-width="3"/>
          <path id="Path_2220" data-name="Path 2220" d="M45.389,28.135a4.844,4.844,0,0,1-9.669,0c0-2.676,4.467-9.065,4.467-9.065S45.389,25.459,45.389,28.135Z" transform="translate(29.796 14.983)" fill="none" stroke="#e21e24" stroke-linecap="round" stroke-miterlimit="10" stroke-width="3"/>
          <path id="Path_2221" data-name="Path 2221" d="M64.788,1.338,39.25,26.329l7.162,2.639a8.707,8.707,0,0,1,3.129,2L66.409,47.928a3,3,0,0,0,4.241,0L89.93,28.647a2.978,2.978,0,0,0,0-4.241L66.427,1.338a1.169,1.169,0,0,0-1.64,0Z" transform="translate(32.919 -1.002)" fill="rgba(0,0,0,0)" stroke="#e21e24" stroke-linecap="round" stroke-miterlimit="10" stroke-width="3"/>
          <line id="Line_3" data-name="Line 3" x2="34.038" transform="translate(81.63 16.073)" fill="none" stroke="#e21e24" stroke-linecap="round" stroke-miterlimit="10" stroke-width="3"/>
        </g>
      </g>
    </g>
  </g>
</svg>
