<svg xmlns="http://www.w3.org/2000/svg" width="150" height="150" viewBox="0 0 150 150">
  <g id="Spices" transform="translate(2429 7096)">
    <rect id="Rectangle_1297" data-name="Rectangle 1297" width="150" height="150" transform="translate(-2429 -7096)" fill="none"/>
    <g id="Group_6377" data-name="Group 6377" transform="translate(-2426 -7087)">
      <circle id="Ellipse_8" data-name="Ellipse 8" cx="38.047" cy="38.047" r="38.047" transform="translate(68.238 56.345)" fill="#db4f44" opacity="0.15"/>
      <g id="Layer_2" data-name="Layer 2" transform="translate(0 0)">
        <g id="Layer_1" data-name="Layer 1" transform="translate(0 0)">
          <circle id="Ellipse_16" data-name="Ellipse 16" cx="21.989" cy="21.989" r="21.989" transform="translate(64.853 21.306)" fill="none" stroke="#e21e24" stroke-linecap="round" stroke-miterlimit="10" stroke-width="3"/>
          <path id="Path_2232" data-name="Path 2232" d="M93.165,25.431A30.116,30.116,0,1,1,79.351,12.1" transform="translate(20.42 3.955)" fill="none" stroke="#e21e24" stroke-linecap="round" stroke-miterlimit="10" stroke-width="3"/>
          <line id="Line_5" data-name="Line 5" x2="38.292" y2="21.652" transform="translate(67.84 32.229)" fill="none" stroke="#e21e24" stroke-linecap="round" stroke-miterlimit="10" stroke-width="3"/>
          <line id="Line_6" data-name="Line 6" y2="43.929" transform="translate(86.842 21.306)" fill="none" stroke="#e21e24" stroke-linecap="round" stroke-miterlimit="10" stroke-width="3"/>
          <line id="Line_7" data-name="Line 7" y1="22.471" x2="37.81" transform="translate(67.76 31.747)" fill="none" stroke="#e21e24" stroke-linecap="round" stroke-miterlimit="10" stroke-width="3"/>
          <path id="Path_2233" data-name="Path 2233" d="M46.35,24.519a27.305,27.305,0,0,0-24.093-3.662s-7.469,37.97,35.561,36.718" transform="translate(11.596 10.231)" fill="none" stroke="#e21e24" stroke-linecap="round" stroke-miterlimit="10" stroke-width="3"/>
          <path id="Path_2234" data-name="Path 2234" d="M57.507,20.416S44.578-5.283,21.577,2.459c0,0-4.979,19.531,9.316,28.269" transform="translate(10.975 -1.005)" fill="none" stroke="#e21e24" stroke-linecap="round" stroke-miterlimit="10" stroke-width="3"/>
          <line id="Line_8" data-name="Line 8" x1="17.475" y1="17.395" transform="translate(43.009 11.3)" fill="none" stroke="#e21e24" stroke-linecap="round" stroke-miterlimit="10" stroke-width="3"/>
          <line id="Line_9" data-name="Line 9" x2="15.387" y2="15.227" transform="translate(44.358 41.239)" fill="none" stroke="#e21e24" stroke-linecap="round" stroke-miterlimit="10" stroke-width="3"/>
          <path id="Path_2235" data-name="Path 2235" d="M37.947,59.839S26.607,18.64,8.874,25.948s0,40.155,0,40.155,18.969,39.737,57.678,35.706L47.279,74.9" transform="translate(-0.993 13.589)" fill="none" stroke="#e21e24" stroke-linecap="round" stroke-miterlimit="10" stroke-width="3"/>
          <path id="Path_2236" data-name="Path 2236" d="M26.062,30.864s-8.529-3.5-12.56,3.02c0,0-9.637-3.1-12.432,5.284" transform="translate(-0.947 16.527)" fill="none" stroke="#e21e24" stroke-linecap="round" stroke-miterlimit="10" stroke-width="3"/>
          <path id="Path_2237" data-name="Path 2237" d="M13.271,14.27s-9.8,7.453-8.031,18.825" transform="translate(1.452 7.036)" fill="none" stroke="#e21e24" stroke-linecap="round" stroke-miterlimit="10" stroke-width="3"/>
          <ellipse id="Ellipse_17" data-name="Ellipse 17" cx="10.023" cy="13.749" rx="10.023" ry="13.749" transform="translate(65.399 79.804)" fill="none" stroke="#e21e24" stroke-linecap="round" stroke-miterlimit="10" stroke-width="3"/>
          <path id="Path_2238" data-name="Path 2238" d="M60.76,62.7c0,4.963-4.16,11.886-9.3,11.886s-9.3-6.923-9.3-11.886,4.16-6.055,9.3-6.055S60.76,57.732,60.76,62.7Z" transform="translate(23.962 32.721)" fill="none" stroke="#e21e24" stroke-linecap="round" stroke-miterlimit="10" stroke-width="3"/>
          <ellipse id="Ellipse_18" data-name="Ellipse 18" cx="10.023" cy="13.749" rx="10.023" ry="13.749" transform="matrix(0.755, -0.656, 0.656, 0.755, 88.561, 101.025)" fill="none" stroke="#e21e24" stroke-linecap="round" stroke-miterlimit="10" stroke-width="3"/>
          <path id="Path_2239" data-name="Path 2239" d="M77.46,64.115c3.212,3.742,4.658,11.709.787,15.082s-11.581.883-14.825-2.859-.835-7.308,3.036-10.681S74.2,60.357,77.46,64.115Z" transform="translate(35.932 36.007)" fill="none" stroke="#e21e24" stroke-linecap="round" stroke-miterlimit="10" stroke-width="3"/>
          <circle id="Ellipse_19" data-name="Ellipse 19" cx="0.562" cy="0.562" r="0.562" transform="translate(110.533 75.403)" fill="none" stroke="#e21e24" stroke-linecap="round" stroke-miterlimit="10" stroke-width="3"/>
          <circle id="Ellipse_20" data-name="Ellipse 20" cx="0.562" cy="0.562" r="0.562" transform="translate(107.722 20.744)" fill="none" stroke="#e21e24" stroke-linecap="round" stroke-miterlimit="10" stroke-width="3"/>
          <circle id="Ellipse_21" data-name="Ellipse 21" cx="0.932" cy="0.932" r="0.932" transform="translate(104.783 82.599)" fill="none" stroke="#e21e24" stroke-linecap="round" stroke-miterlimit="10" stroke-width="3"/>
          <circle id="Ellipse_23" data-name="Ellipse 23" cx="0.932" cy="0.932" r="0.932" transform="translate(40.02 80.318)" fill="none" stroke="#e21e24" stroke-linecap="round" stroke-miterlimit="10" stroke-width="3"/>
          <circle id="Ellipse_22" data-name="Ellipse 22" cx="1.14" cy="1.14" r="1.14" transform="translate(95.338 79.178)" fill="none" stroke="#e21e24" stroke-linecap="round" stroke-miterlimit="10" stroke-width="3"/>
        </g>
      </g>
    </g>
  </g>
</svg>
