<svg xmlns="http://www.w3.org/2000/svg" width="90" height="29" viewBox="0 0 90 29">
  <g id="Group_7292" data-name="Group 7292" transform="translate(-896 -1016)">
    <path id="Polygon_1" data-name="Polygon 1" d="M14.1,1.841a1,1,0,0,1,1.8,0l3.521,7.212a1,1,0,0,0,.75.55l7.863,1.179a1,1,0,0,1,.557,1.7l-5.7,5.672a1,1,0,0,0-.281.873L23.938,27a1,1,0,0,1-1.456,1.047l-7.012-3.728a1,1,0,0,0-.939,0L7.518,28.049A1,1,0,0,1,6.062,27l1.329-7.977a1,1,0,0,0-.281-.873L1.41,12.48a1,1,0,0,1,.557-1.7L9.83,9.6a1,1,0,0,0,.75-.55Z" transform="translate(927 1016)" fill="#ffb614"/>
    <path id="Polygon_2" data-name="Polygon 2" d="M10.1,1.813a1,1,0,0,1,1.793,0l2.282,4.615a1,1,0,0,0,.75.546l5.084.753a1,1,0,0,1,.554,1.7l-3.677,3.613a1,1,0,0,0-.285.88l.858,5.088a1,1,0,0,1-1.451,1.052l-4.547-2.387a1,1,0,0,0-.93,0L5.988,20.062A1,1,0,0,1,4.537,19.01L5.4,13.922a1,1,0,0,0-.285-.88L1.433,9.43a1,1,0,0,1,.554-1.7l5.084-.753a1,1,0,0,0,.75-.546Z" transform="translate(964 1021)" fill="#ffb614"/>
    <path id="Polygon_3" data-name="Polygon 3" d="M10.1,1.813a1,1,0,0,1,1.793,0l2.282,4.615a1,1,0,0,0,.75.546l5.084.753a1,1,0,0,1,.554,1.7l-3.677,3.613a1,1,0,0,0-.285.88l.858,5.088a1,1,0,0,1-1.451,1.052l-4.547-2.387a1,1,0,0,0-.93,0L5.988,20.062A1,1,0,0,1,4.537,19.01L5.4,13.922a1,1,0,0,0-.285-.88L1.433,9.43a1,1,0,0,1,.554-1.7l5.084-.753a1,1,0,0,0,.75-.546Z" transform="translate(896 1021)" fill="#ffb614"/>
  </g>
</svg>
