<svg xmlns="http://www.w3.org/2000/svg" xmlns:xlink="http://www.w3.org/1999/xlink" width="308" height="308" viewBox="0 0 308 308">
  <defs>
    <linearGradient id="linear-gradient" x1="0.5" x2="0.5" y2="1" gradientUnits="objectBoundingBox">
      <stop offset="0" stop-color="#f3f3f3"/>
      <stop offset="1" stop-color="#fff"/>
    </linearGradient>
    <clipPath id="clip-path">
      <circle id="Ellipse_41" data-name="Ellipse 41" cx="126" cy="126" r="126" transform="translate(0.101)" fill="#fff" stroke="#707070" stroke-width="1"/>
    </clipPath>
  </defs>
  <g id="Group_7294" data-name="Group 7294" transform="translate(-579 -3101)">
    <circle id="Ellipse_37" data-name="Ellipse 37" cx="154" cy="154" r="154" transform="translate(579 3101)" fill="url(#linear-gradient)"/>
    <g id="Mask_Group_49" data-name="Mask Group 49" transform="translate(606.899 3129)" clip-path="url(#clip-path)">
      <g id="Group_6509" data-name="Group 6509" transform="translate(14.261 4.272)">
        <g id="Group_6502" data-name="Group 6502" transform="translate(43.988 190.733)">
          <g id="Group_6501" data-name="Group 6501">
            <g id="Group_6500" data-name="Group 6500">
              <path id="Path_3197" data-name="Path 3197" d="M-946.088-12.649a5.529,5.529,0,0,1-2.606-3.748,6.125,6.125,0,0,1,1.141-4.474,8.425,8.425,0,0,1,3.2-2.894,14.086,14.086,0,0,1,4.326-1.328c.039-.349.091-.872.155-1.574s.123-1.272.18-1.713.141-.959.256-1.554a8.811,8.811,0,0,1,.487-1.664,7.945,7.945,0,0,1,.77-1.451,5.96,5.96,0,0,1,3.678-2.7,5.48,5.48,0,0,1,4.353.974,6.107,6.107,0,0,1,2.628,3.384,4.478,4.478,0,0,1-.685,3.9,7.5,7.5,0,0,1-1.775,1.836,9.982,9.982,0,0,1-2.413,1.311,25.044,25.044,0,0,1-2.417.793q-1.086.289-2.41.526l-.194,7.516a16.7,16.7,0,0,0,4.064-3.714l2.917,1.958a11.6,11.6,0,0,1-2.861,2.863,15.181,15.181,0,0,1-3.5,1.965,4.026,4.026,0,0,0,.427,1.461,2.889,2.889,0,0,0,.978,1.131l-2.013,3c-.094-.052-.226-.133-.4-.247a3.09,3.09,0,0,1-.537-.457,6.259,6.259,0,0,1-.407-.477,2.986,2.986,0,0,1-.331-.591c-.111-.25-.193-.433-.243-.551a4.978,4.978,0,0,1-.191-.641c-.075-.311-.121-.506-.137-.589s-.057-.3-.122-.643-.1-.536-.1-.567a6.859,6.859,0,0,1-3.059.237A7.534,7.534,0,0,1-946.088-12.649Zm1.626-2.421a4.637,4.637,0,0,0,4.074.349l.126-7.5a8.039,8.039,0,0,0-2.4,1.273,8.511,8.511,0,0,0-1.953,2.056,4.216,4.216,0,0,0-.793,2.136A1.86,1.86,0,0,0-944.462-15.07Zm7.284-10.245a12.239,12.239,0,0,0,3.359-1.579,9.242,9.242,0,0,0,2.686-2.571,1.991,1.991,0,0,0,.359-1.574,2.172,2.172,0,0,0-.989-1.333,1.79,1.79,0,0,0-1.847-.182,4,4,0,0,0-1.638,1.471A15.314,15.314,0,0,0-937.179-25.316Z" transform="translate(948.764 38.1)" fill="#66852e"/>
              <path id="Path_3198" data-name="Path 3198" d="M-925.175-1.049l7.159-25.736,3.584,1-3.091,11.113,6.612,1.839,3.091-11.113,3.587,1-7.159,25.736-3.586-1,3.354-12.061-6.612-1.839L-921.589-.051Z" transform="translate(957.165 41.336)" fill="#66852e"/>
              <path id="Path_3199" data-name="Path 3199" d="M-907.513,3.179l2.258-26.616,10.306.875-.232,2.745-6.6-.56-.746,8.8,5.362.454-.225,2.648-5.362-.454-.827,9.761,6.678.565-.226,2.665Z" transform="translate(963.455 42.528)" fill="#66852e"/>
              <path id="Path_3200" data-name="Path 3200" d="M-894.443,4.141l3.339-27.11,3.579-.315L-879.5,2.825l-3.53.311-1.81-6.6-5.41.476-.677,6.82Zm4.44-9.82,4.445-.392L-888.846-17.9Z" transform="translate(968.109 42.583)" fill="#66852e"/>
              <path id="Path_3201" data-name="Path 3201" d="M-875.441,1.715l-6.9-25.807,3.595-.961,6.207,23.223,6.584-1.76L-865.26-1Z" transform="translate(972.42 41.953)" fill="#66852e"/>
              <path id="Path_3202" data-name="Path 3202" d="M-858.975-2.633-868.56-24.59l-4.475,1.953-1.1-2.525,12.2-5.324,1.1,2.525-4.312,1.882,9.586,21.957Z" transform="translate(975.34 40.018)" fill="#66852e"/>
              <path id="Path_3203" data-name="Path 3203" d="M-848.072-7.378l-15.011-22.1L-860-31.566l6.482,9.542,5.677-3.857-6.482-9.542,3.08-2.092,15.011,22.1-3.078,2.091-7.036-10.354-5.678,3.857,7.037,10.355Z" transform="translate(979.277 37.515)" fill="#66852e"/>
            </g>
          </g>
        </g>
        <g id="Group_6505" data-name="Group 6505" transform="translate(6.409)">
          <g id="Group_6504" data-name="Group 6504" transform="translate(0 0)">
            <g id="Group_6503" data-name="Group 6503">
              <path id="Path_3204" data-name="Path 3204" d="M-948.55-112.511a12,12,0,0,1-1.659,2.741,6.5,6.5,0,0,1-1.909,1.611,5.192,5.192,0,0,1-2.235.578,8.592,8.592,0,0,1-2.539-.294,18.726,18.726,0,0,1-2.917-1.077l-16.667-7.564,2.412-5.312,17.457,7.925c.381.174.71.311.989.414a6.02,6.02,0,0,0,.937.256,2.764,2.764,0,0,0,.906.05,1.635,1.635,0,0,0,.749-.324,1.939,1.939,0,0,0,.587-.769,1.894,1.894,0,0,0,.19-.94,1.648,1.648,0,0,0-.254-.77,2.7,2.7,0,0,0-.635-.65,6.168,6.168,0,0,0-.815-.54q-.4-.216-.956-.469l-17.457-7.924,2.417-5.327,16.667,7.566a16.35,16.35,0,0,1,3.291,1.909,7.241,7.241,0,0,1,1.956,2.278,5.155,5.155,0,0,1,.557,2.924A11.363,11.363,0,0,1-948.55-112.511Z" transform="translate(976.475 191.551)" fill="#66852e"/>
              <path id="Path_3205" data-name="Path 3205" d="M-944.483-120.814l-18.084-13.127-2.414,3.325-3.534-2.564,8.272-11.4,3.533,2.566-2.383,3.286,18.084,13.126Z" transform="translate(979.31 186.679)" fill="#66852e"/>
              <path id="Path_3206" data-name="Path 3206" d="M-940.631-126.182l-17.337-20.328,4.738-4.176,12.558,9.764-7.939-13.834,4.581-4.037,17.987,19.753-3.167,2.791-12.045-13.008,9.363,15.373-2.768,2.44-14.27-11.219,11.5,13.657Z" transform="translate(983.066 181.616)" fill="#66852e"/>
              <path id="Path_3207" data-name="Path 3207" d="M-921.932-141.542a10.851,10.851,0,0,1-3.64,1.218,5.612,5.612,0,0,1-3.026-.414,7.333,7.333,0,0,1-2.449-1.827,14.85,14.85,0,0,1-2.072-3.118l-4.525-8.762a14.9,14.9,0,0,1-1.347-3.5,7.259,7.259,0,0,1-.065-3.04,5.572,5.572,0,0,1,1.42-2.692,10.967,10.967,0,0,1,3.106-2.257q3.851-1.989,6.534-.881t4.683,4.972l4.524,8.76q2,3.865,1.353,6.709T-921.932-141.542ZM-924.745-145a1.98,1.98,0,0,0,.9-.245,2.111,2.111,0,0,0,.731-.586,1.56,1.56,0,0,0,.315-.689,2.125,2.125,0,0,0-.042-.8,4.783,4.783,0,0,0-.252-.822c-.1-.244-.236-.528-.4-.853l-5.877-11.379c-.163-.316-.315-.584-.454-.808a4.793,4.793,0,0,0-.521-.675,2.051,2.051,0,0,0-.622-.484,1.6,1.6,0,0,0-.74-.136,2.116,2.116,0,0,0-.9.258,2.053,2.053,0,0,0-.724.582,1.67,1.67,0,0,0-.315.671,1.868,1.868,0,0,0,.046.792,4.794,4.794,0,0,0,.259.8c.1.227.235.507.407.841l5.879,11.381c.172.334.323.609.454.826a4.8,4.8,0,0,0,.506.682,1.959,1.959,0,0,0,.622.5A1.7,1.7,0,0,0-924.745-145Z" transform="translate(989.754 178.618)" fill="#66852e"/>
              <path id="Path_3208" data-name="Path 3208" d="M-909.754-146.354q-3.67.987-5.994-.483t-3.613-5.709l4.684-2.061a8.87,8.87,0,0,0,1.532,3.367,1.831,1.831,0,0,0,1.953.651q1.446-.389.944-2.255a5.055,5.055,0,0,0-.89-1.821,5.728,5.728,0,0,0-1.322-1.254,15.757,15.757,0,0,0-1.919-1.052l-2.818-1.362a17.565,17.565,0,0,1-1.721-.938,10.485,10.485,0,0,1-1.444-1.122A6.306,6.306,0,0,1-921.619-162a9.257,9.257,0,0,1-.839-2.126,6.619,6.619,0,0,1,.591-5.5,7.874,7.874,0,0,1,4.811-3.2,8.557,8.557,0,0,1,2.16-.315,5.943,5.943,0,0,1,1.763.228,4.635,4.635,0,0,1,1.409.713,6.374,6.374,0,0,1,1.108,1.02,8.007,8.007,0,0,1,.856,1.254,10.629,10.629,0,0,1,.643,1.337q.242.618.471,1.343l-4.761,1.964q-.191-.649-.33-1.07c-.092-.281-.2-.578-.329-.888a3.933,3.933,0,0,0-.381-.731,2.508,2.508,0,0,0-.437-.475,1.03,1.03,0,0,0-.549-.245,1.6,1.6,0,0,0-.67.081,1.359,1.359,0,0,0-.975.937,2.589,2.589,0,0,0-.027,1.484,4.823,4.823,0,0,0,.537,1.283,3.593,3.593,0,0,0,.934.991,11.048,11.048,0,0,0,.949.646q.354.205,1.168.62l2.714,1.34a19.734,19.734,0,0,1,1.972,1.13,13.249,13.249,0,0,1,1.7,1.345A7.851,7.851,0,0,1-905.684-157a9.64,9.64,0,0,1,.953,2.337,6.479,6.479,0,0,1-.617,5.146A6.914,6.914,0,0,1-909.754-146.354Z" transform="translate(995.596 176.509)" fill="#66852e"/>
              <path id="Path_3209" data-name="Path 3209" d="M-902.094-148.248l-1.642-22.286-4.1.3-.32-4.354,14.043-1.036.32,4.354-4.048.3,1.642,22.286Z" transform="translate(1000.805 175.623)" fill="#66852e"/>
              <path id="Path_3210" data-name="Path 3210" d="M-880.208-146.675q-3.708-.844-5.073-3.228t-.525-6.737l5.1.367a8.863,8.863,0,0,0-.22,3.693,1.832,1.832,0,0,0,1.421,1.489q1.461.332,1.889-1.553a5.041,5.041,0,0,0,.065-2.027,5.768,5.768,0,0,0-.583-1.726,16,16,0,0,0-1.2-1.827l-1.855-2.521a17.787,17.787,0,0,1-1.082-1.634,10.455,10.455,0,0,1-.753-1.667,6.285,6.285,0,0,1-.362-2.007,9.382,9.382,0,0,1,.254-2.271,6.622,6.622,0,0,1,3.092-4.585,7.886,7.886,0,0,1,5.75-.575,8.518,8.518,0,0,1,2.054.731,5.938,5.938,0,0,1,1.453,1.025,4.68,4.68,0,0,1,.913,1.29,6.479,6.479,0,0,1,.5,1.42,7.891,7.891,0,0,1,.168,1.509,10.588,10.588,0,0,1-.056,1.482c-.052.441-.121.909-.213,1.406l-5.126-.49c.089-.442.159-.81.209-1.1s.091-.6.123-.94a3.9,3.9,0,0,0,.005-.825,2.578,2.578,0,0,0-.163-.624,1.04,1.04,0,0,0-.373-.473,1.624,1.624,0,0,0-.629-.241,1.359,1.359,0,0,0-1.3.373,2.569,2.569,0,0,0-.719,1.3,4.832,4.832,0,0,0-.125,1.383,3.612,3.612,0,0,0,.362,1.314,10.316,10.316,0,0,0,.538,1.014q.218.348.742,1.094l1.772,2.452a20.14,20.14,0,0,1,1.215,1.92,13.356,13.356,0,0,1,.871,1.983,7.878,7.878,0,0,1,.428,2.3,9.626,9.626,0,0,1-.251,2.513,6.47,6.47,0,0,1-2.952,4.26A6.909,6.909,0,0,1-880.208-146.675Z" transform="translate(1008.649 176.287)" fill="#66852e"/>
              <path id="Path_3211" data-name="Path 3211" d="M-875.009-146.593l15.768-22.149,6.059,2.79-6.606,26.367-4.947-2.277,1.538-5.536-3.541-1.631-3.192,4.775Zm10.213-5.426,2.592,1.192,3.023-9.995Z" transform="translate(1012.609 178.073)" fill="#66852e"/>
              <path id="Path_3212" data-name="Path 3212" d="M-861.634-140.031l15.62-21.671,9.384,6.764-2.346,3.255-4.6-3.316-3.929,5.45,3.96,2.853-2.411,3.347-3.96-2.855-6.934,9.62Z" transform="translate(1017.372 180.581)" fill="#66852e"/>
              <path id="Path_3213" data-name="Path 3213" d="M-852.7-134.02l19.125-18.648,8.381,8.592-2.884,2.813-4.262-4.372-4.73,4.612,3.251,3.333-2.941,2.868-3.251-3.333-5.711,5.567,4.308,4.418-2.861,2.79Z" transform="translate(1020.553 183.798)" fill="#66852e"/>
              <path id="Path_3214" data-name="Path 3214" d="M-843.83-124.074l18.489-12.551-2.308-3.4,3.613-2.452,7.909,11.65-3.611,2.452-2.281-3.359-18.489,12.552Z" transform="translate(1023.712 187.427)" fill="#66852e"/>
              <path id="Path_3215" data-name="Path 3215" d="M-837.613-114.409l10.014-4.363,12.442-10.974,2.22,5.095-6.737,5.713L-811-120.2l2.143,4.919-16.484,1.7-10.014,4.363Z" transform="translate(1025.926 191.961)" fill="#66852e"/>
            </g>
          </g>
        </g>
        <path id="Path_3216" data-name="Path 3216" d="M-878.013-153.883A82.807,82.807,0,0,0-960.82-71.076a82.807,82.807,0,0,0,82.807,82.807,82.807,82.807,0,0,0,82.806-82.807A82.806,82.806,0,0,0-878.013-153.883Zm0,148.393A65.586,65.586,0,0,1-943.6-71.076a65.586,65.586,0,0,1,65.586-65.586,65.585,65.585,0,0,1,65.584,65.586A65.585,65.585,0,0,1-878.013-5.49Z" transform="translate(988.459 186.808)" fill="#8db347"/>
        <path id="Path_3217" data-name="Path 3217" d="M-847.833-113.48h0a25.487,25.487,0,0,0-36.047,0l-3.526,3.526-3.527-3.526a25.487,25.487,0,0,0-36.047,0h0a25.489,25.489,0,0,0,0,36.047l3.526,3.526h0l36.048,36.048,36.047-36.048,3.526-3.526A25.487,25.487,0,0,0-847.833-113.48Z" transform="translate(997.852 198.537)" fill="#cce354"/>
        <g id="Group_6506" data-name="Group 6506" transform="translate(91.218 87.8)">
          <path id="Path_3218" data-name="Path 3218" d="M-890.667-100.935c7.243-9.677,20.11-12.483,20.11-12.483s-.182,13.169-8.218,22.2C-885.17-84.035-896.432-93.235-890.667-100.935Z" transform="translate(921.657 113.418)" fill="#8db347"/>
          <path id="Path_3219" data-name="Path 3219" d="M-913.937-95.233c17.091,16.353,19.228,33.885,19.228,33.885s7.826-28.75,21.02-42.928" transform="translate(913.937 116.674)" fill="none" stroke="#fff" stroke-linecap="round" stroke-linejoin="round" stroke-width="2"/>
        </g>
        <g id="Group_6507" data-name="Group 6507" transform="translate(0 112.046)">
          <path id="Path_3220" data-name="Path 3220" d="M-974.545-67.379c-8.321-12.187-6.484-28.16-6.484-28.16s15.141,5.407,22.4,18.255C-952.851-67.059-967.925-57.68-974.545-67.379Z" transform="translate(981.201 95.539)" fill="#8db347"/>
          <path id="Path_3221" data-name="Path 3221" d="M-958.889-63.635c-5.791-5.881-11.238-12.444-14.782-19.052" transform="translate(983.883 100.116)" fill="none" stroke="#cce354" stroke-linecap="round" stroke-linejoin="round" stroke-width="2"/>
        </g>
        <g id="Group_6508" data-name="Group 6508" transform="translate(197.694 110.995)">
          <path id="Path_3222" data-name="Path 3222" d="M-817.38-68.153c8.32-12.187,6.484-28.161,6.484-28.161s-15.142,5.408-22.4,18.256C-839.076-67.834-824-58.454-817.38-68.153Z" transform="translate(835.718 96.314)" fill="#8db347"/>
          <path id="Path_3223" data-name="Path 3223" d="M-835.422-64.409c5.789-5.881,11.238-12.444,14.78-19.052" transform="translate(835.422 100.891)" fill="none" stroke="#cce354" stroke-linecap="round" stroke-linejoin="round" stroke-width="2"/>
        </g>
      </g>
    </g>
  </g>
</svg>
